<svg id="Layer_1" data-name="Layer 1" xmlns="http://www.w3.org/2000/svg" viewBox="0 0 100 78.17"><path d="M50,22.6q-20.88,0-41.75,0a20.88,20.88,0,0,1-3.71-.31A5.33,5.33,0,0,1,0,16.66a5.33,5.33,0,0,1,4.48-5.43,18.73,18.73,0,0,1,3.5-.3q42.06,0,84.12,0a18.23,18.23,0,0,1,3.3.28,5.34,5.34,0,0,1,4.6,5.54,5.34,5.34,0,0,1-4.58,5.55,19.64,19.64,0,0,1-3.51.29Q70.94,22.62,50,22.6Z" transform="translate(0 -10.92)"/><path d="M49.78,55.84q-20.87,0-41.74,0a18.77,18.77,0,0,1-3.51-.3A5.33,5.33,0,0,1,0,49.94a5.32,5.32,0,0,1,4.45-5.46A17.8,17.8,0,0,1,8,44.17q42.06,0,84.12,0a18.75,18.75,0,0,1,3.5.31,5.65,5.65,0,0,1,.08,11,19.14,19.14,0,0,1-3.7.33Q70.86,55.86,49.78,55.84Z" transform="translate(0 -10.92)"/><path d="M49.94,89.08q-20.88,0-41.75,0a20,20,0,0,1-3.71-.3,5.65,5.65,0,0,1,0-11.06,17.39,17.39,0,0,1,3.3-.3H92.12a17.38,17.38,0,0,1,3.3.29,5.64,5.64,0,0,1,0,11.09,19.63,19.63,0,0,1-3.51.28Q70.92,89.1,49.94,89.08Z" transform="translate(0 -10.92)"/></svg>