<svg id="Layer_1" data-name="Layer 1" xmlns="http://www.w3.org/2000/svg" viewBox="0 0 100 88.72"><path d="M44,5.64H75c7.8,0,13,5.26,13,13.12,0,12,0,24.08,0,36.12a2.84,2.84,0,0,0,1.75,3,19.32,19.32,0,0,1,9.69,21.36c-2.25,9-9.75,15.06-18.74,15.11a18.79,18.79,0,0,1-14.86-6.6,3.32,3.32,0,0,0-2.82-1.22q-25.06,0-50.13,0C5.26,86.55,0,81.31,0,73.66V18.38C0,10.89,5.23,5.65,12.73,5.65Q28.39,5.62,44,5.64ZM37.14,83.22c8.09,0,16.19,0,24.29,0,1.08,0,1.39-.2.91-1.3a15.75,15.75,0,0,1-1-3.73C59.07,65.34,70.15,53.8,83,55.68c1.27.19,1.57-.26,1.56-1.38,0-3.06,0-6.12,0-9.18A2.73,2.73,0,0,0,83.74,43c-2.79-2.78-5.59-5.56-8.36-8.37a1.21,1.21,0,0,0-1.86-.13Q64,41.41,54.44,48.25c-.72.51-.73.85,0,1.34,1.47,1,2.9,2,4.34,3s2,2.12,1.23,3c-1.05,1.27-2.12.59-3.14-.13q-3.37-2.39-6.75-4.74L27.19,34.67c-.73-.51-1.33-1-2.3-.19Q14.61,43.3,4.23,52a2.51,2.51,0,0,0-.91,2.17c0,6.43,0,12.87,0,19.3A10.58,10.58,0,0,0,4,77.28c1.47,3.82,4.83,5.93,9.49,5.94Q25.31,83.24,37.14,83.22ZM84.26,38.84a7.47,7.47,0,0,0,.27-1c0-6.8.11-13.6-.07-20.39a8.73,8.73,0,0,0-9-8.46Q44.05,9,12.69,9A9.19,9.19,0,0,0,7.8,10.34c-3.26,2-4.47,5-4.47,8.69q0,13.54,0,27.09c0,.54-.17,1.13.19,1.64.58.05.83-.41,1.16-.7L23.72,31c1.8-1.52,2-1.53,3.91-.22Q38.48,38.37,49.3,46c.9.64,1.56.77,2.43,0s1.76-1.29,2.64-1.93c6.23-4.49,12.47-9,18.68-13.48,1.28-.93,2.32-.91,3.4.27.91,1,1.91,1.9,2.85,2.87C80.88,35.33,82.45,37,84.26,38.84ZM80.44,91c8.72,0,16.24-7.36,16.08-16.08-.16-9-6.84-16.05-16.09-16-9.51,0-15.82,7.33-16,15.94A16.16,16.16,0,0,0,80.44,91Z" transform="translate(0 -5.64)"/><path d="M59.68,27.11a10.47,10.47,0,0,1-20.94,0,10.47,10.47,0,1,1,20.94,0ZM49.3,34a6.92,6.92,0,1,0-7-7A7,7,0,0,0,49.3,34Z" transform="translate(0 -5.64)"/><path d="M82.14,71.39v9.92c0,.52,0,1,0,1.56,0,1.09-.5,1.81-1.68,1.79s-1.63-.78-1.64-1.84c0-2.8,0-5.61,0-8.41,0-1,0-2,0-3l-.41-.21c-.95,1-1.89,2-2.84,3-.81.84-1.79,1.28-2.73.39s-.56-2,.31-2.85c1.91-1.9,3.8-3.83,5.73-5.72,1.2-1.16,2.05-1.17,3.22,0,2,2,4,4,6,5.94.77.78,1.18,1.68.28,2.59s-1.89.65-2.72-.19c-1-1-2-2.09-3-3.14Z" transform="translate(0 -5.64)"/></svg>