<svg id="Layer_1" data-name="Layer 1" xmlns="http://www.w3.org/2000/svg" viewBox="0 0 100 100"><defs><style>.cls-1{fill:#4dae4e;}.cls-2{fill:#fdfefd;}</style></defs><path class="cls-1" d="M50.05,100a50,50,0,1,1,50-49.94A50.08,50.08,0,0,1,50.05,100Zm6.29-66.47c0-2.86,0-5.73,0-8.59,0-1.81-.52-2.32-2.34-2.33-2.6,0-5.21,0-7.81,0-2,0-2.47.5-2.47,2.52,0,5.67,0,11.35,0,17,0,1.26-.38,1.55-1.58,1.54-5.73-.06-11.46,0-17.19,0-1.82,0-2.31.49-2.33,2.33,0,2.6,0,5.2,0,7.81,0,2,.46,2.47,2.5,2.48,5.68,0,11.36,0,17,0,1.25,0,1.57.35,1.55,1.57-.06,5.73,0,11.46,0,17.18,0,1.82.51,2.32,2.33,2.34,2.61,0,5.21,0,7.81,0,2,0,2.48-.47,2.48-2.5,0-5.68,0-11.36,0-17,0-1.28.39-1.55,1.59-1.54,5.72.06,11.45,0,17.18,0,1.81,0,2.32-.52,2.34-2.33,0-2.55,0-5.11,0-7.66,0-2.2-.44-2.63-2.67-2.63-5.62,0-11.25,0-16.87,0-1.29,0-1.57-.41-1.54-1.6C56.39,39.26,56.34,36.4,56.34,33.53Z" transform="translate(0)"/><path class="cls-2" d="M56.34,33.53c0,2.87,0,5.73,0,8.59,0,1.19.25,1.62,1.54,1.6,5.62-.08,11.25,0,16.87,0,2.23,0,2.66.43,2.67,2.63,0,2.55,0,5.11,0,7.66,0,1.81-.53,2.32-2.34,2.33-5.73,0-11.46,0-17.18,0-1.2,0-1.6.26-1.59,1.54.07,5.67,0,11.35,0,17,0,2-.45,2.49-2.48,2.5-2.6,0-5.2,0-7.81,0-1.82,0-2.32-.52-2.33-2.34,0-5.72,0-11.45,0-17.18,0-1.22-.3-1.58-1.55-1.57-5.67.07-11.35,0-17,0-2,0-2.48-.45-2.5-2.48,0-2.61,0-5.21,0-7.81,0-1.84.51-2.33,2.33-2.33,5.73,0,11.46,0,17.19,0,1.2,0,1.59-.28,1.58-1.54-.07-5.68,0-11.36,0-17,0-2,.48-2.51,2.47-2.52,2.6,0,5.21,0,7.81,0,1.82,0,2.33.52,2.34,2.33C56.35,27.8,56.34,30.67,56.34,33.53Z" transform="translate(0)"/></svg>