<svg id="Layer_1" data-name="Layer 1" xmlns="http://www.w3.org/2000/svg" viewBox="0 0 89.38 100"><path d="M20.57,100c0-3.84,0-7.68,0-11.51a30.1,30.1,0,0,1,1.26-9.62,1,1,0,0,0-.37-1.19c-2.51-2.37-5-4.78-7.5-7.13a1.08,1.08,0,0,1-.19-1.65C15.43,66.29,17,63.64,18.65,61a1.33,1.33,0,0,0,.09-1.52,5.56,5.56,0,0,1-.69-1.61c-.27-1.41-1.18-1.88-2.48-2.15-2.73-.56-5.43-1.29-8.16-1.9-.62-.14-.89-.42-.89-1.05q0-8.19,0-16.39c0-.72.41-.92,1-1.06,3-.7,5.94-1.43,8.92-2.11a1.48,1.48,0,0,0,1.29-1.13,2.8,2.8,0,0,1,.36-.91c1.06-1.59.78-3-.32-4.5-1.47-2.06-2.68-4.31-4-6.45a1,1,0,0,1,.16-1.51Q19.66,13,25.35,7.28a1,1,0,0,1,1.51-.14c2.56,1.61,5.15,3.17,7.71,4.78a1.54,1.54,0,0,0,1.87.14,2.8,2.8,0,0,1,1-.42c1.72-.35,2.45-1.41,2.75-3.12.44-2.53,1.17-5,1.73-7.5.16-.73.46-1,1.23-1q8.05,0,16.1,0A1.08,1.08,0,0,1,60.5,1c.66,3,1.41,5.88,2.08,8.82a1.57,1.57,0,0,0,1.2,1.35,3.77,3.77,0,0,1,1.18.46c1.38.91,2.54.65,3.87-.27C71,9.83,73.36,8.53,75.61,7.1A1,1,0,0,1,77,7.26q5.73,5.79,11.52,11.52a1,1,0,0,1,.13,1.43c-1.62,2.59-3.2,5.21-4.83,7.8a2.09,2.09,0,0,0-.15,1.81c.61,2.59,2.19,3.73,4.79,4A63.27,63.27,0,0,1,95,35.34a1,1,0,0,1,.94,1.12q0,8.15,0,16.29c0,.68-.29,1-.94,1.1C92,54.53,89,55.27,86,56c-.69.16-1.2.42-1.36,1.17a2.31,2.31,0,0,1-.28.73c-1.21,1.75-.79,3.26.4,4.9,1.4,2,2.53,4.09,3.82,6.12a1,1,0,0,1-.12,1.52c-2.33,2.46-4.61,5-6.94,7.4a1.44,1.44,0,0,0-.41,1.64,26.66,26.66,0,0,1,1.09,7.79c0,4.26,0,8.52,0,12.78ZM38.94,60.87a19.8,19.8,0,1,1,25.05,0s.07.12.12.14a27.66,27.66,0,0,1,13.68,11c.27.42.48.32.75,0,.68-.74,1.33-1.52,2.07-2.2a1.19,1.19,0,0,0,.2-1.82c-1.39-2.15-2.68-4.38-4.07-6.54a1.81,1.81,0,0,1-.15-1.9c1.07-2.47,2.11-5,3.1-7.47a1.89,1.89,0,0,1,1.52-1.29c2.47-.54,4.93-1.18,7.4-1.73.71-.16,1-.44,1-1.23,0-2.15,0-4.3,0-6.44a1,1,0,0,0-.89-1.13c-2.56-.59-5.12-1.24-7.68-1.81a1.67,1.67,0,0,1-1.32-1.12q-1.57-3.88-3.22-7.75a1.57,1.57,0,0,1,.14-1.63c1.4-2.23,2.75-4.49,4.16-6.72a1,1,0,0,0-.15-1.51c-1.54-1.49-3.06-3-4.55-4.55A1,1,0,0,0,74.62,15c-2.23,1.4-4.49,2.75-6.71,4.16a1.59,1.59,0,0,1-1.64.14q-3.85-1.65-7.75-3.21a1.68,1.68,0,0,1-1.12-1.32c-.58-2.53-1.21-5.06-1.77-7.59a1.09,1.09,0,0,0-1.26-1q-3.16.07-6.34,0c-.77,0-1.08.28-1.25,1-.56,2.54-1.19,5.06-1.77,7.59a1.67,1.67,0,0,1-1.12,1.32c-2.56,1-5.12,2.09-7.66,3.18a1.74,1.74,0,0,1-1.81-.16C32.23,17.68,30,16.35,27.79,15a1,1,0,0,0-1.51.17c-1.46,1.52-3,3-4.49,4.48a1.11,1.11,0,0,0-.16,1.67c1.4,2.19,2.73,4.43,4.11,6.63a1.49,1.49,0,0,1,.17,1.55c-1.12,2.63-2.21,5.27-3.29,7.92a1.6,1.6,0,0,1-1.28,1c-2.53.57-5.05,1.21-7.59,1.78a1.06,1.06,0,0,0-1,1.25q.08,3.08,0,6.15c0,.87.23,1.26,1.13,1.45,2.51.53,5,1.17,7.49,1.75a1.59,1.59,0,0,1,1.25,1.07q1.56,3.89,3.22,7.74a1.74,1.74,0,0,1-.19,1.81c-1.4,2.19-2.73,4.43-4.11,6.63a.89.89,0,0,0,.14,1.35c.8.71,1.56,1.47,2.32,2.23.51.53.85.61,1.32-.12a26.35,26.35,0,0,1,7.12-7.27A31,31,0,0,1,38.94,60.87Zm12.46,33H75.2c.53,0,.78-.22.76-.76a85.59,85.59,0,0,0-.2-9.34A21.12,21.12,0,0,0,60.39,66.32,40.7,40.7,0,0,0,43.94,66C35.39,67.31,28.12,75.15,27,83.71a87.28,87.28,0,0,0-.2,8.86c0,1.33,0,1.34,1.35,1.34Zm0-62A13.56,13.56,0,1,0,65,45.42,13.53,13.53,0,0,0,51.39,31.91Z" transform="translate(-6.52)"/></svg>