<svg id="Layer_1" data-name="Layer 1" xmlns="http://www.w3.org/2000/svg" viewBox="0 0 100 78"><path d="M50,89H7.56c-3.47,0-6-1.62-7.14-4.51A7,7,0,0,1,0,81.88q0-15,0-30.08a7.23,7.23,0,0,1,.76-3.3Q8.05,34.11,15.31,19.72a6.84,6.84,0,0,1,6.8-4.06c1.56.06,2.07-.46,2.13-2,.08-2,.85-2.65,2.88-2.65H72.79c2.17,0,2.88.63,3,2.88.07,1.35.53,1.82,1.87,1.76,3.37-.16,5.72,1.4,7.23,4.41q7.05,14.06,14.18,28.09a8.72,8.72,0,0,1,.94,4c0,9.77,0,19.54,0,29.31,0,4.59-2.87,7.49-7.47,7.49Q71.22,89,50,89Zm0-4.72H92.17c2.4,0,3.21-.66,3.22-2.77q0-14.65,0-29.3c0-1.94-.85-2.73-2.79-2.73-7,0-13.92,0-20.88,0a1.91,1.91,0,0,0-2,1.33c-.66,1.58-1.39,3.13-2.12,4.69a4.48,4.48,0,0,1-4.45,2.78q-13.17,0-26.33,0a4.5,4.5,0,0,1-4.43-2.82c-.7-1.51-1.44-3-2.05-4.55a2.06,2.06,0,0,0-2.25-1.43c-6.7,0-13.41,0-20.11,0-2.73,0-3.38.65-3.38,3.41q0,13.86,0,27.74c0,3.14.54,3.67,3.74,3.67ZM50,39.82q-13.48,0-27,0c-3.57,0-3.26-.59-3.32,3.35,0,1.25.37,1.77,1.69,1.73,2.65-.08,5.3,0,8,0a4.62,4.62,0,0,1,4.66,3c.71,1.55,1.45,3.1,2.11,4.68a1.68,1.68,0,0,0,1.79,1.15q12.07,0,24.15,0a1.69,1.69,0,0,0,1.79-1.14c.73-1.73,1.49-3.44,2.33-5.1a4.32,4.32,0,0,1,4.13-2.55c2.34,0,4.68,0,7,0,3.08,0,2.93.38,2.93-3,0-2.1,0-2.1-2.06-2.11Zm.07-12.22h-2.8c-7.22,0-14.44,0-21.66,0-1.26,0-1.79.37-1.71,1.69s0,2.8,0,4.2c0,2.11,0,2.12,2.17,2.12H73.76c.31,0,.62,0,.93,0,1,.08,1.43-.32,1.39-1.35a40.42,40.42,0,0,1,0-4.67c.14-1.62-.49-2-2-2C66.07,27.64,58.07,27.6,50.07,27.6ZM50,23.39c6.59,0,13.18,0,19.76,0,1.27,0,1.79-.36,1.72-1.67q-.12-2.49,0-5c.06-1.24-.44-1.61-1.64-1.59-4.57.05-9.13,0-13.7,0-8.61,0-17.22,0-25.83,0-1.35,0-1.89.37-1.8,1.76a36.39,36.39,0,0,1,0,4.67c-.1,1.46.47,1.84,1.88,1.83C36.92,23.36,43.46,23.39,50,23.39ZM11.59,44.89c.72,0,1.45-.06,2.18,0,1.24.12,1.65-.43,1.6-1.63-.07-1.61,0-3.22,0-4.83.05-1.95.81-2.81,2.74-2.81,1.38,0,1.64-.61,1.62-1.8q-.09-3.9,0-7.79c.05-2,.75-2.63,2.67-2.63,1.08,0,1.78-.15,1.76-1.5s-.65-1.52-1.76-1.57a3.16,3.16,0,0,0-3.29,2c-3.18,6.42-6.45,12.8-9.67,19.2C7.78,44.88,7.79,44.89,11.59,44.89Zm73.05-4.07c0,.88,0,1.77,0,2.65-.06,1.09.42,1.48,1.48,1.43,1.4,0,2.81,0,4.21,0,1.85,0,1.89-.08,1.07-1.7Q86.13,32.77,80.84,22.35c-.93-1.83-1.67-2.17-3.77-2-1.08.09-1.21.72-1.23,1.59s.25,1.57,1.32,1.43c2.54-.31,3.16,1.2,3.13,3.32,0,2.49,0,5,0,7.48,0,.83.16,1.34,1.18,1.42,2.7.23,3.16.79,3.18,3.51Z" transform="translate(0 -11)"/><path d="M50,77.86c-3.47,0-6.95,0-10.43,0-2.53,0-3.67-1.18-3.68-3.74q0-2.88,0-5.76c0-2.19,1.06-3.42,3.25-3.59,1.91-.15,3.84-.09,5.75-.09,4.88,0,9.76,0,14.64,0,3.61,0,4.62,1,4.62,4.64,0,1.71,0,3.42,0,5.14a3.12,3.12,0,0,1-3.4,3.39C57.14,77.89,53.56,77.86,50,77.86Zm-.07-4.24c2.86,0,5.71,0,8.56,0,1.09,0,1.54-.4,1.45-1.47a5.71,5.71,0,0,1,0-1.24c.17-1.4-.36-1.92-1.82-1.9-5,.08-10.07,0-15.1,0-3,0-2.94,0-2.94,2.94,0,1.2.36,1.67,1.6,1.64C44.41,73.58,47.16,73.62,49.91,73.62Z" transform="translate(0 -11)"/></svg>