<svg id="Layer_1" data-name="Layer 1" xmlns="http://www.w3.org/2000/svg" viewBox="0 0 100 100"><path d="M49.94,100c-27.35.26-50.1-22.69-50-50.23C.1,22.58,22.72-.17,50.29,0A50.37,50.37,0,0,1,100,50.53C99.79,77.59,77.26,100.33,49.94,100ZM94.76,50.05C94.42,25.09,75,5.44,50.19,5.35A44.33,44.33,0,0,0,5.32,49.84,44.34,44.34,0,0,0,50,94.71C74.86,94.74,94.41,75,94.76,50.05Z"/><path d="M42.5,70.08a2.61,2.61,0,0,1-1.76-4.51c1.36-1.28,2.78-2.5,4.18-3.73,4.1-3.59,8.18-7.2,12.31-10.74.93-.79,1.09-1.22.06-2.1-5-4.32-10-8.72-15-13.09-.51-.45-1-.88-1.49-1.37a2.63,2.63,0,0,1-.24-3.65,2.5,2.5,0,0,1,3.62-.32c2,1.55,3.79,3.22,5.67,4.86q6.8,5.93,13.58,11.89c2.3,2,2.32,3.38.05,5.37q-9.16,8.07-18.38,16.1A3.81,3.81,0,0,1,42.5,70.08Z"/></svg>