<svg id="Layer_1" data-name="Layer 1" xmlns="http://www.w3.org/2000/svg" viewBox="0 0 100.02 100"><defs><style>.cls-1{fill:#4dae4e;}.cls-2{fill:#fafdfa;}</style></defs><path class="cls-1" d="M46.09,0h7.62c.11.23.33.17.51.18A49.93,49.93,0,0,1,100,48.43a48.05,48.05,0,0,1-7,27.08C83.28,91.07,69.2,99.37,50.85,100a47,47,0,0,1-28.29-8.21,49.39,49.39,0,0,1-22-34.35A13.72,13.72,0,0,0,0,54.11v-8.2c.25-.09.18-.31.2-.5a61.12,61.12,0,0,1,1-6.16C5.31,19.38,22.42,3.4,42.59.55A16.57,16.57,0,0,0,46.09,0Zm29,35.61a3.18,3.18,0,0,0-2.52-3.33,3.38,3.38,0,0,0-3.13,1.19q-13,13.06-26.09,26.12c-.54.55-.81.53-1.33,0-3.82-3.87-7.68-7.71-11.53-11.54a3.17,3.17,0,0,0-4.68-.24,3.22,3.22,0,0,0,.29,4.69L40.18,66.59c1.64,1.64,3.35,1.63,5,0L48.73,63,73.8,38A3.45,3.45,0,0,0,75.08,35.61Z" transform="translate(0.01)"/><path class="cls-2" d="M75.08,35.61A3.45,3.45,0,0,1,73.8,38L48.73,63,45.2,66.56c-1.67,1.66-3.38,1.67-5,0L26.09,52.5a3.22,3.22,0,0,1-.29-4.69,3.17,3.17,0,0,1,4.68.24c3.85,3.83,7.71,7.67,11.53,11.54.52.53.79.55,1.33,0q13-13.08,26.09-26.12a3.38,3.38,0,0,1,3.13-1.19A3.18,3.18,0,0,1,75.08,35.61Z" transform="translate(0.01)"/></svg>