<svg id="Layer_1" data-name="Layer 1" xmlns="http://www.w3.org/2000/svg" viewBox="0 0 100 100"><path d="M50,37H10.11C8,37,8,37,8,39V86.82C8,90.62,9.36,92,13.2,92c10,0,20.05,0,30.07,0a3,3,0,0,1,2.84,1.45,29.22,29.22,0,0,0,4.64,5.23c.32.31.93.57.74,1.07s-.82.28-1.25.28H19.7c-2.65,0-5.3,0-7.95,0A11.62,11.62,0,0,1,0,88.18Q0,53.9,0,19.63A11.62,11.62,0,0,1,11.86,7.81c1,0,2.08,0,3.12,0s1.3-.38,1.28-1.29c0-1.67,0-3.33,0-5C16.22.38,16.69,0,17.83,0,19.54.06,21.26.06,23,0c1.18,0,1.55.49,1.52,1.58,0,1.46.09,2.92,0,4.36s.54,1.9,2,1.89c8.57,0,17.14,0,25.71,0,7.16,0,14.33,0,21.5,0,1.45,0,1.94-.45,1.84-1.87s0-3,0-4.52c0-.93.29-1.46,1.34-1.44,1.86,0,3.74,0,5.6,0,1,0,1.29.46,1.28,1.34,0,1.51.11,3,0,4.52s.54,2,2.06,2a16.15,16.15,0,0,1,6.32.57,11.71,11.71,0,0,1,7.89,11q0,15.35,0,30.69c0,.48.27,1.17-.33,1.38s-.74-.47-1-.79A30.55,30.55,0,0,0,93.2,46a2.59,2.59,0,0,1-1.28-2.6c.08-1.61,0-3.22,0-4.83.06-1.23-.39-1.63-1.61-1.62-5.71.05-11.43,0-17.14,0Zm0-8.23H68.05c7.42,0,14.85,0,22.27,0,1.19,0,1.71-.33,1.64-1.59-.09-1.61,0-3.22,0-4.83,0-5.71-.92-6.61-6.61-6.52H85c-1-.1-1.35.44-1.33,1.4,0,1.66,0,3.32,0,5,0,1-.34,1.44-1.37,1.42-1.81,0-3.63,0-5.45,0-1,0-1.43-.37-1.41-1.37,0-1.45,0-2.9,0-4.36,0-2.06,0-2.07-2-2.07H28.09c-3.61,0-3.61,0-3.61,3.64,0,4.15,0,4.15-4.22,4.15-4,0-4,0-4-4.06-.05-4.34.74-3.71-3.82-3.71-2.89,0-4.36,1.55-4.41,4.48,0,2.13,0,4.26,0,6.39s0,2,2.09,2Z" transform="translate(0 0)"/><path d="M100,73.61a26.44,26.44,0,0,1-52.88,0,26.44,26.44,0,1,1,52.88,0Zm-44.68,0A18.3,18.3,0,1,0,73.52,55.27,18.08,18.08,0,0,0,55.27,73.63Z" transform="translate(0 0)"/><path d="M18.77,44.87c4.15,0,4.17,0,4.15,4.21,0,4.45.5,3.77-3.76,3.81-4.46,0-4.48,0-4.46-4.36s-.44-3.59,3.61-3.66Z" transform="translate(0 0)"/><path d="M34.42,44.88c4.09,0,4.11,0,4.08,4.11,0,4.56.53,3.84-3.83,3.9-.93,0-1.86,0-2.79,0-1.09.06-1.64-.32-1.61-1.5.05-1.7,0-3.41,0-5.12,0-1.08.47-1.48,1.51-1.42C32.66,44.91,33.55,44.88,34.42,44.88Z" transform="translate(0 0)"/><path d="M49.94,44.87c4.15,0,4.17,0,4.14,4.21,0,4.45.5,3.77-3.76,3.81-4.46,0-4.47,0-4.45-4.36s-.44-3.59,3.6-3.66Z" transform="translate(0 0)"/><path d="M18.81,68.48c-4.11,0-4.13,0-4.11-4.09,0-4.62-.56-3.88,4-3.92,4.26,0,4.28,0,4.26,4.23,0,4.41.5,3.71-3.8,3.78Z" transform="translate(0 0)"/><path d="M34.33,68.48c-4,0-4,0-4-4s0-4,4-4c4.21,0,4.21,0,4.21,4S38.51,68.48,34.33,68.48Z" transform="translate(0 0)"/><path d="M18.79,84.06c-4.09,0-4.11,0-4.09-4.11,0-4.59-.56-3.83,4-3.91,1,0,2,0,2.94,0s1.31.43,1.3,1.32c0,1.75,0,3.51,0,5.27,0,1.07-.45,1.49-1.5,1.44C20.55,84,19.67,84.06,18.79,84.06Z" transform="translate(0 0)"/><path d="M38.51,80.21c-.06,4.52.51,3.8-3.89,3.84s-4.36,0-4.33-4.32S29.83,76.11,34,76h.31C38.51,76,38.51,76,38.51,80.21Z" transform="translate(0 0)"/><path d="M76.67,77.52c-2,0-3.93,0-5.9,0-1,0-1.54-.3-1.54-1.4,0-4.77,0-9.54,0-14.3,0-1,.41-1.4,1.4-1.38,1.82,0,3.63,0,5.44,0,1,0,1.39.44,1.38,1.4,0,2.08,0,4.15,0,6.22,0,1.07.36,1.51,1.45,1.46s2.48,0,3.73,0c.94,0,1.45.26,1.43,1.31,0,1.81,0,3.63,0,5.44,0,.95-.41,1.28-1.31,1.26C80.72,77.49,78.7,77.51,76.67,77.52Z" transform="translate(0 0)"/></svg>