<svg id="Layer_1" data-name="Layer 1" xmlns="http://www.w3.org/2000/svg" viewBox="0 0 99.95 100"><path d="M92,22.59c0-3.64,0-7,0-10.36a3.77,3.77,0,0,1,3.33-3.72,3.91,3.91,0,0,1,4.47,2.76A6.39,6.39,0,0,1,100,13c0,3.74,0,7.48,0,11.21A12.32,12.32,0,0,1,87.65,36.44c-3.94,0-7.89,0-11.83,0-2.56,0-4.3-1.57-4.37-3.86a4.14,4.14,0,0,1,4.34-4.14c2.7-.05,5.4,0,8.09,0,.54,0,1.3.32,1.57-.28s-.37-1-.68-1.48A42.38,42.38,0,0,0,71.13,13.88,40.19,40.19,0,0,0,50.06,8.15C36.74,8.3,25.75,13.63,17.29,24A39.55,39.55,0,0,0,8.5,44.63,40.83,40.83,0,0,0,18,77,41,41,0,0,0,44.55,91.53a23.74,23.74,0,0,0,7.29.25,10.48,10.48,0,0,1,2-.07,4.25,4.25,0,0,1,4.32,4.05,4.11,4.11,0,0,1-4.07,4.1,55.65,55.65,0,0,1-10.72-.25A48.85,48.85,0,0,1,13.15,83.74C2.54,72-1.74,58.1.69,42.45,3.35,25.27,12.85,12.84,28.26,5A47.15,47.15,0,0,1,57.33.62C71.8,2.86,83.12,10.14,91.49,22.1,91.55,22.18,91.64,22.24,92,22.59Z" transform="translate(-0.02)"/><path d="M54.13,34.49c0,4.88,0,9.75,0,14.63a5.76,5.76,0,0,1-1.76,4.33c-4.83,4.79-9.62,9.61-14.44,14.4-2,2-4.54,2.12-6.22.43s-1.49-4.22.5-6.22c4.14-4.16,8.27-8.32,12.45-12.43a3.9,3.9,0,0,0,1.26-3c0-8.82,0-17.65,0-26.47,0-3.34,1.55-5.35,4.11-5.35s4.1,2,4.1,5.36Q54.15,27.32,54.13,34.49Z" transform="translate(-0.02)"/><path d="M80.7,80.18a3.44,3.44,0,0,1,.81-2.31c.85-1.05,1.67-2.13,2.58-3.11a4,4,0,0,1,5.59-.46,4.06,4.06,0,0,1,.62,5.59,35.28,35.28,0,0,1-2.91,3.44,3.92,3.92,0,0,1-4.46.75A3.79,3.79,0,0,1,80.7,80.18Z" transform="translate(-0.02)"/><path d="M65.17,91.81a3.32,3.32,0,0,1,1.64-3.19,21.52,21.52,0,0,1,4.58-2.28,4,4,0,0,1,4.83,2,4,4,0,0,1-1.25,5,18,18,0,0,1-4.71,2.34A3.89,3.89,0,0,1,65.17,91.81Z" transform="translate(-0.02)"/><path d="M94,67.57a4,4,0,0,1-3.78-4.81,30.52,30.52,0,0,1,1.1-4.2A4,4,0,0,1,99,60.88c-.3,1.26-.6,2.52-1,3.75A3.89,3.89,0,0,1,94,67.57Z" transform="translate(-0.02)"/></svg>