<svg id="Layer_1" data-name="Layer 1" xmlns="http://www.w3.org/2000/svg" viewBox="0 0 100 100"><defs><style>.cls-1{fill:#fee605;}.cls-2{fill:#ebbf20;}.cls-3{fill:#7aa2d5;}.cls-4{fill:#81d3f1;}.cls-5{fill:#474747;}</style></defs><path class="cls-1" d="M46.87,100a20.32,20.32,0,0,0-3.81-.53A49.08,49.08,0,0,1,13.73,84.35,48.49,48.49,0,0,1,.36,55.82,49.92,49.92,0,0,1,40.73.85,50.72,50.72,0,0,1,49.16,0c.63,0,.85.14.83.8q-.08,2.15,0,4.29c0,.69-.25.79-.84.8a43.11,43.11,0,0,0-26.81,9.73C13.61,22.71,8.07,31.81,6.47,43,4,60.28,9.83,74.46,23.55,85.26a41.5,41.5,0,0,0,21.38,8.52c1.68.2,3.37.19,5.06.34V100Z"/><path class="cls-2" d="M50,100V94.12c1.5-.31,3-.15,4.55-.31a43,43,0,0,0,22.6-9.16A42.52,42.52,0,0,0,93.25,58.12,43.18,43.18,0,0,0,84,22c-.56-.7-1.18-1.36-1.89-2.19a24.53,24.53,0,0,0,.16,3.82,15.29,15.29,0,0,0,.24,2.62c.09.58-.18.67-.63.71-1.55.12-3.11.24-4.66.39-.48.05-.61-.14-.64-.59Q75.93,19,75.25,11.29c0-.56.18-.68.65-.71q5.14-.39,10.29-.81c1.69-.13,3.37-.26,5-.43.5,0,.71.07.74.6.09,1.46.21,2.92.38,4.37.09.73-.14.92-.88,1-1.64.07-3.28.27-5.06.43,1.22,1.44,2.4,2.76,3.47,4.17a49.55,49.55,0,0,1,9.25,21,32.9,32.9,0,0,1,.66,5.51c0,.18,0,.4.19.5v.39a2.94,2.94,0,0,0-.17,1.87c.05,1.2-.25,2.42.17,3.6v.58c-.27.14-.18.39-.19.61a41,41,0,0,1-.87,6.25A49.37,49.37,0,0,1,81.08,89.09,48.56,48.56,0,0,1,57.19,99.45a23.1,23.1,0,0,0-3.88.55Z"/><path class="cls-1" d="M100,52.74c-.42-1.18-.12-2.4-.17-3.6a2.94,2.94,0,0,1,.17-1.87Z"/><path class="cls-3" d="M50,19A29.75,29.75,0,0,1,68.59,25.2,30,30,0,0,1,80.58,45a30.05,30.05,0,0,1-7.23,25.26A30.21,30.21,0,0,1,54.19,80.7c-.88.13-1.75.12-2.62.21-.39,0-.8-.15-1.17.1L50,81c0-2,0-4,0-5.94,1.06-.14,2.13-.06,3.2-.21A24.4,24.4,0,0,0,70.94,63.7a24.14,24.14,0,0,0,3-21A24.4,24.4,0,0,0,60.7,27.3,27.64,27.64,0,0,0,50,24.82Z"/><path class="cls-4" d="M50,75.05c0,2,0,4,0,5.94a31.63,31.63,0,0,1-12-2.42A31.09,31.09,0,0,1,19.31,54.49a30.12,30.12,0,0,1,5.06-22A30.38,30.38,0,0,1,43.73,19.61,22.8,22.8,0,0,1,50,19l0,5.83a27.48,27.48,0,0,0-4.06.37A24.52,24.52,0,0,0,28.59,36.81,24,24,0,0,0,25.4,55.13,24.55,24.55,0,0,0,39.26,72.68,23.17,23.17,0,0,0,50,75.05Z"/><path class="cls-4" d="M50.4,81c.37-.25.78-.12,1.17-.1A1.81,1.81,0,0,1,50.4,81Z"/><path class="cls-5" d="M52.94,42.7c0,2.64,0,5.27,0,7.91a1.42,1.42,0,0,1-.57,1.24q-4.47,3.69-8.91,7.43c-.36.3-.58.4-.93,0-1-1.21-2-2.41-3-3.58-.43-.48-.1-.64.2-.9C41.87,53,44,51.15,46.16,49.39a2.25,2.25,0,0,0,.91-2c0-4.13,0-8.26,0-12.39,0-.83.24-1,1-1,1.37.06,2.73,0,4.1-.05.67,0,.8.21.79.83C52.92,37.43,52.94,40.07,52.94,42.7Z"/></svg>