<svg id="Layer_1" data-name="Layer 1" xmlns="http://www.w3.org/2000/svg" viewBox="0 0 99.97 100"><defs><style>.cls-1{fill:#ef4639;}.cls-2{fill:#faf8f8;}</style></defs><path class="cls-1" d="M100,46.1v7.81a11.76,11.76,0,0,0-.44,2.83A50.23,50.23,0,0,1,57.4,99.45a20.91,20.91,0,0,0-3.7.55H46.08a11.83,11.83,0,0,0-2.83-.44A48.79,48.79,0,0,1,15.13,85.75C3.36,74-1.57,59.79.46,43.31A47.78,47.78,0,0,1,14.2,15.17,48.89,48.89,0,0,1,48.07.05,47.52,47.52,0,0,1,75.61,7.12C88.93,15.33,96.92,27.2,99.45,42.7A15.73,15.73,0,0,0,100,46.1ZM69.63,34.32a8.56,8.56,0,0,0-.24-1.12,4.15,4.15,0,0,0-7-1.52q-5.84,5.76-11.59,11.61c-.71.73-1,.63-1.71,0-3.81-3.88-7.66-7.71-11.52-11.54a4.17,4.17,0,1,0-5.91,5.88q5.85,5.9,11.75,11.73c.56.56.5.84,0,1.36Q37.55,56.5,31.74,62.35a4.18,4.18,0,1,0,5.88,5.92q5.87-5.8,11.66-11.68c.58-.59.87-.56,1.43,0,3.84,3.9,7.71,7.75,11.59,11.62a4.18,4.18,0,1,0,5.91-5.89c-3.85-3.88-7.71-7.76-11.61-11.59-.64-.63-.55-.92,0-1.5,3.85-3.79,7.65-7.63,11.48-11.44A4.73,4.73,0,0,0,69.63,34.32Z" transform="translate(-0.02 0)"/><path class="cls-2" d="M69.63,34.32a4.73,4.73,0,0,1-1.52,3.48c-3.83,3.81-7.63,7.65-11.48,11.44-.58.58-.67.87,0,1.5,3.9,3.83,7.76,7.71,11.61,11.59a4.18,4.18,0,1,1-5.91,5.89c-3.88-3.87-7.75-7.72-11.59-11.62-.56-.57-.85-.6-1.43,0q-5.79,5.88-11.66,11.68a4.18,4.18,0,1,1-5.88-5.92q5.82-5.85,11.67-11.66c.53-.52.59-.8,0-1.36Q37.53,43.5,31.69,37.6a4.17,4.17,0,1,1,5.91-5.88c3.86,3.83,7.71,7.66,11.52,11.54.66.66,1,.76,1.71,0q5.74-5.86,11.59-11.61a4.15,4.15,0,0,1,7,1.52A8.56,8.56,0,0,1,69.63,34.32Z" transform="translate(-0.02 0)"/></svg>