<svg id="Layer_1" data-name="Layer 1" xmlns="http://www.w3.org/2000/svg" viewBox="0 0 81.29 100"><path d="M16,59.47c0-9.29,0-18.59,0-27.88a2.06,2.06,0,0,0-1.37-2.24,9,9,0,0,1,3.94-17.19c3,0,5.92,0,8.88,0,3.26,0,2.83.27,2.86-2.81A9,9,0,0,1,35.62.89,8.44,8.44,0,0,1,39.53,0C46.48,0,53.44,0,60.4,0a9.21,9.21,0,0,1,9.35,9.24c.06,3.14-.48,2.88,2.94,2.89,3,0,6,0,9,0a8.92,8.92,0,0,1,8.67,6.94,8.82,8.82,0,0,1-4.67,10.06A2.63,2.63,0,0,0,84.05,32q.06,27.09,0,54.2a17,17,0,0,1-.86,5.66,11.63,11.63,0,0,1-11.24,8c-14.43,0-28.87-.15-43.3.08A12.35,12.35,0,0,1,16,87.35C15.89,78.06,16,68.76,16,59.47Zm63,.37c0-9.29,0-18.58,0-27.87,0-1.43-.44-1.86-1.87-1.86q-27.18.06-54.35,0c-1.51,0-2,.47-1.94,2q.06,26.86,0,53.73a13.85,13.85,0,0,0,.55,4,6.58,6.58,0,0,0,5.53,5A14.23,14.23,0,0,0,29.1,95H71c3.44,0,6-1.31,7.42-4.59A10.35,10.35,0,0,0,79,86.32ZM50,25.06H74.72c2.44,0,4.88.05,7.31-.06a3.58,3.58,0,0,0,3.45-3.38,3.74,3.74,0,0,0-2.93-4.32,12.69,12.69,0,0,0-2.47-.23q-30,0-60.09,0a12.12,12.12,0,0,0-2.62.25,3.59,3.59,0,0,0-2.83,3.3c-.24,2.78,1.3,4.42,4.29,4.42Q34.4,25.08,50,25.06Zm0-12.91H63c.69,0,1.54.19,1.65-.91.38-3.75-.73-6.3-5.16-6.32-6.28,0-12.55,0-18.83,0-3.8,0-5.45,1.74-5.49,5.56,0,1.27.39,1.73,1.69,1.71C41.21,12.11,45.57,12.15,49.93,12.15Z" transform="translate(-9.36 0)"/><path d="M52.57,60.72v20.7c0,2.43-.93,3.77-2.56,3.77s-2.55-1.33-2.55-3.75V39.88c0-.26,0-.52,0-.78.08-1.85,1-2.94,2.53-3s2.53,1.1,2.55,2.94c0,5.18,0,10.37,0,15.56Z" transform="translate(-9.36 0)"/><path d="M66.32,60.65q0,10.35,0,20.72c0,2.45-.89,3.79-2.5,3.82s-2.59-1.35-2.59-3.75q0-20.73,0-41.44a12.09,12.09,0,0,1,.17-1.7,2.42,2.42,0,0,1,4.79-.07,8.77,8.77,0,0,1,.13,1.85Q66.32,50.37,66.32,60.65Z" transform="translate(-9.36 0)"/><path d="M38.62,60.72c0,7.27,0,14.54,0,21.8a2.45,2.45,0,0,1-2.28,2.66,2.62,2.62,0,0,1-2.58-2.58c0-.52,0-1,0-1.56V39.63a4.56,4.56,0,0,1,.35-2.13,2.28,2.28,0,0,1,2.57-1.31,2.17,2.17,0,0,1,1.93,2,12.17,12.17,0,0,1,0,1.71q0,10.43,0,20.86Z" transform="translate(-9.36 0)"/></svg>