<svg id="Layer_1" data-name="Layer 1" xmlns="http://www.w3.org/2000/svg" viewBox="0 0 100 100"><path d="M78,44.35a7.31,7.31,0,0,1-2.2,5.45q-6,6.06-12,12c-1.09,1.08-2,1.07-3.1,0-4-4-8.08-7.88-11.9-12a3.32,3.32,0,0,0-3.76-1.17,6.91,6.91,0,0,1-5.34-.44c-.7-.39-1.46,0-2.17.13a6,6,0,0,1-6-2.51,1.56,1.56,0,0,0-1.29-.72,18.86,18.86,0,0,1-14-7,16.5,16.5,0,0,0-7-5.32C6.34,31.68,3.58,30.24.73,29A2.34,2.34,0,0,1-.82,26.56c0-8.1,0-16.21,0-24.31C-.79.15.41-.59,2.32.36q9.75,4.83,19.47,9.72a4.15,4.15,0,0,0,1.92.46c5.81-.09,11.62-.11,17.43-.28,2.39-.07,4.79-.14,7.18-.16a9.38,9.38,0,0,1,7.38,3.29q3,3.41,6,6.86a9.64,9.64,0,0,1,2.22,9.14,8.15,8.15,0,0,0-.05,4.72,6.45,6.45,0,0,1-1.47,6.22c-.18.22-.73.45-.33.84s.67-.15.92-.38c.69-.65,1.34-1.36,2-2a7.73,7.73,0,0,1,12.87,4A13.71,13.71,0,0,1,78,44.35Zm-75.3-29c0,3.17,0,6.34,0,9.51a1.35,1.35,0,0,0,.89,1.46c3.58,1.57,7.13,3.21,10.7,4.79a5.94,5.94,0,0,1,2.3,1.79,36.7,36.7,0,0,0,3.81,4.37c4.45,4,11.24,5.63,16.65,2.7,1.39-.76,2.83-1.43,4.25-2.13A3,3,0,0,1,43,37.45c4.18.54,8.37,1.07,12.55,1.56a5.41,5.41,0,0,0,2.62-.12,3.55,3.55,0,0,0,2.26-3.38,3.65,3.65,0,0,0-2.95-3.29L41.63,28.8a1.83,1.83,0,1,1,.75-3.56c.66.14,1.31.27,2,.43s1,0,.71-.78c-.16-.39-.32-.79-.46-1.18-.47-1.32-.1-2.3,1-2.7s1.86.14,2.36,1.35,1,2.4,1.43,3.64,1.33,1.07,2.15,1.15.48-.79.71-1.2c.1-.18.11-.42.21-.59a1.71,1.71,0,0,1,1.93-1A1.64,1.64,0,0,1,55.81,26a3,3,0,0,1-.1,1.15c-.26.78.11,1,.78,1.14a19.83,19.83,0,0,1,2.76.67c.76.25,1,0,1.15-.7a6.24,6.24,0,0,0-1.54-5.68c-1.8-2-3.6-4.05-5.33-6.14a6.71,6.71,0,0,0-5.77-2.66c-8.13.21-16.26.31-24.4.47a5.38,5.38,0,0,1-2.63-.61C15.07,10.78,9.39,8,3.73,5.12c-.78-.39-1-.3-1,.62C2.75,8.94,2.73,12.15,2.73,15.35ZM51.46,42.17c-.56-.08-.83.25-1,.72a3.79,3.79,0,0,0,.76,4.22c3.47,3.55,7,7,10.5,10.55.42.42.73.4,1.14,0,3.47-3.49,7-7,10.43-10.46a3.73,3.73,0,0,0,1-3.29,3.82,3.82,0,0,0-2.7-3.33,3.93,3.93,0,0,0-4.27,1l-3.29,3.28c-1.37,1.37-2.21,1.37-3.57,0l-1.64-1.64c-.23-.23-.45-.48-.8-.47A48.63,48.63,0,0,1,51.46,42.17Zm-8.5-1c-.32.15-.81.34-1.26.59a1.91,1.91,0,0,0,1.15,3.56c.94-.09,1.86-.3,2.79-.48.32-.06.85,0,.85-.43a14.28,14.28,0,0,0,.24-2.68c0-.08-.23-.16-.36-.17Z"/><path d="M100.82,79q0,5.76,0,11.52c0,1.59-.57,2.28-2.16,2.12C92.21,92,86.19,93.9,80.11,95.55c-5,1.33-9.93,2.6-14.9,3.91a16,16,0,0,1-13.07-2q-14.7-9.25-29.32-18.65a7.07,7.07,0,0,1,2.66-13,7.26,7.26,0,0,1,3.63.46c4.34,1.44,8.68,2.87,13,4.35.78.26,1.14.24,1.44-.67a6.88,6.88,0,0,1,6.87-4.62q7.29,0,14.58,0a3.06,3.06,0,0,0,2.1-.76,18.25,18.25,0,0,1,23.26,0,3.11,3.11,0,0,0,2.21.79c1.9,0,3.8,0,5.7,0s2.53.61,2.53,2.51Q100.82,73.41,100.82,79Zm-3.53.14c0-3,0-6,0-9,0-1-.31-1.22-1.22-1.18-1.55.06-3.1,0-4.65,0a3.39,3.39,0,0,1-2.64-1,14.67,14.67,0,0,0-20,0A3.65,3.65,0,0,1,66,69c-5.21,0-10.42,0-15.64,0a3.39,3.39,0,0,0-3,1.32,3.21,3.21,0,0,0,2.51,5.13H65.88a4.54,4.54,0,0,1,1.47.13,1.69,1.69,0,0,1,1.32,1.9,1.72,1.72,0,0,1-1.54,1.63,4.77,4.77,0,0,1-.85,0c-5.35,0-10.7,0-16.06,0A6.75,6.75,0,0,1,44,75.61a1.87,1.87,0,0,0-1.08-.93L27.61,69.59a3.34,3.34,0,0,0-2.37,0,3.19,3.19,0,0,0-2.15,3,3.45,3.45,0,0,0,1.81,3.24L54,94.33a13,13,0,0,0,10.65,1.54c6.43-1.68,12.89-3.28,19.28-5.11a34.27,34.27,0,0,1,12.26-1.61c.88.07,1.16-.26,1.14-1.14C97.26,85.05,97.29,82.09,97.29,79.14Z"/></svg>