<svg id="Layer_1" data-name="Layer 1" xmlns="http://www.w3.org/2000/svg" viewBox="0 0 99.91 100"><path d="M41.9,100q-15.42,0-30.84,0a10.68,10.68,0,0,1-11-11q0-31,0-62A10.8,10.8,0,0,1,11,16Q32,16,53,16c2.49,0,3.79,1.24,3.65,3.4a2.74,2.74,0,0,1-2.52,2.69,14.07,14.07,0,0,1-1.72,0h-40c-4.62,0-6.21,1.59-6.21,6.16V87.93c0,4.33,1.61,5.93,5.92,5.93q30,0,60,0c4.14,0,5.86-1.72,5.86-5.88q0-20.57,0-41.12c0-2.25,1-3.41,2.88-3.47A2.94,2.94,0,0,1,84,46.1a11.42,11.42,0,0,1,0,1.55V88.3c0,7.19-4.49,11.69-11.63,11.7Z" transform="translate(-0.05 0)"/><path d="M100,12.54c.11,2.3-1.08,4.06-2.68,5.66Q79.65,35.8,62,53.43c-2.49,2.49-5,5-7.47,7.49a5.71,5.71,0,0,1-3.1,1.65c-4,.76-7.93,1.57-11.89,2.36-3.52.71-5.16-1-4.44-4.52.79-3.91,1.58-7.82,2.33-11.74a6,6,0,0,1,1.72-3.23Q60.56,24.1,81.91,2.73c3.65-3.64,7.48-3.63,11.17,0,1.63,1.6,3.25,3.22,4.84,4.85A6.63,6.63,0,0,1,100,12.54ZM43.19,57.9c2-.41,4.31-.87,6.63-1.4A2.69,2.69,0,0,0,51,55.72q17-17,34.05-34c.74-.75.66-1.23,0-1.91-1.54-1.47-3.07-2.95-4.51-4.52-.87-1-1.44-.93-2.35,0Q61.34,32.12,44.52,48.89a3.34,3.34,0,0,0-1.1,1.66c-.44,2.18-.86,4.37-1.3,6.56C42,57.68,42.13,58,43.19,57.9ZM87.63,6.26c-.22.07-.41.07-.51.16-1,1-2.11,2-3.09,3.06-.44.48.15.84.45,1.15,1,1,2,2.06,3.07,3.09,2.87,2.89,2.86,2.88,5.61-.18.64-.7.77-1.27,0-2C91.61,10,90.05,8.41,88.46,6.85A5,5,0,0,0,87.63,6.26Z" transform="translate(-0.05 0)"/></svg>