<svg id="Layer_1" data-name="Layer 1" xmlns="http://www.w3.org/2000/svg" viewBox="0 0 100 100"><path d="M49.92,81.9c-8.76,0-16.71-2.81-24.15-7.22A89.24,89.24,0,0,1,1.27,52.84c-1.64-2.06-1.7-3.53-.15-5.48,8-10,17.27-18.5,28.82-24.27,14.3-7.14,28.42-6.5,42.31,1.12C82.84,30,91.52,38,99,47.48c1.33,1.68,1.42,3.25.14,4.85C89.81,64,79,73.71,64.83,79.15A40.84,40.84,0,0,1,49.92,81.9ZM51.31,75c4.29.12,9.55-1.38,14.58-3.73C76,66.53,84,59.33,91.27,51c.81-.93.47-1.5-.18-2.24C84.53,41.25,77.17,34.7,68.3,30c-11.37-6.07-22.91-6.64-34.63-1C24,33.64,16.09,40.62,9,48.61c-1,1.11-.85,1.82.07,2.86a88,88,0,0,0,16.74,15C33.13,71.41,40.93,75,51.31,75Z"/><path d="M51.11,30.25c10,.16,19,9.23,18.75,20.14a19.87,19.87,0,1,1-39.74-.85C30.36,38.48,40.18,29.31,51.11,30.25ZM50,63A13,13,0,1,0,37,50,13.1,13.1,0,0,0,50,63Z"/></svg>