<svg id="Layer_1" data-name="Layer 1" xmlns="http://www.w3.org/2000/svg" viewBox="0 0 100.01 100"><defs><style>.cls-1{fill:#68bc6b;}.cls-2{fill:#fefefd;}</style></defs><path class="cls-1" d="M49.93,0A50,50,0,1,1,0,50,50,50,0,0,1,49.93,0Zm.15,21.28H27.9c-2.69,0-3.81,1.42-3.17,4A4.38,4.38,0,0,0,26,27.21Q35.14,36.63,44.27,46a3.19,3.19,0,0,1,1,2.46c0,8.44,0,16.87,0,25.31a1.57,1.57,0,0,0,1.22,1.79c2.25.79,4.51,1.59,6.71,2.52,1.4.6,1.6.16,1.59-1.18,0-9.43,0-18.85,0-28.27a3.39,3.39,0,0,1,1-2.63C60.9,40.8,66,35.52,71.11,30.25c1.09-1.12,2.19-2.23,3.26-3.36a4,4,0,0,0,.76-4.24c-.52-1.44-1.9-1.38-3.18-1.38Z" transform="translate(0 0)"/><path class="cls-2" d="M50.08,21.28H72c1.28,0,2.66-.06,3.18,1.38a4,4,0,0,1-.76,4.24C73.3,28,72.2,29.13,71.11,30.25,66,35.52,60.9,40.8,55.76,46a3.39,3.39,0,0,0-1,2.63c0,9.42,0,18.84,0,28.27,0,1.34-.19,1.78-1.59,1.18-2.2-.93-4.46-1.73-6.71-2.52a1.57,1.57,0,0,1-1.22-1.79c0-8.44,0-16.87,0-25.31a3.19,3.19,0,0,0-1-2.46Q35.1,36.66,26,27.21a4.38,4.38,0,0,1-1.27-1.93c-.64-2.58.48-4,3.17-4Z" transform="translate(0 0)"/></svg>