<svg id="Layer_1" data-name="Layer 1" xmlns="http://www.w3.org/2000/svg" viewBox="0 0 99.93 100"><path d="M0,50.26Q0,28.71,0,7.15C0,1.94,1.82,0,7.11,0Q49.73,0,92.32,0c5.57,0,7.6,2,7.61,7.52q.07,42.6,0,85.2c0,5.53-1.84,7.24-7.33,7.24q-42.77,0-85.54,0c-5.51,0-7-1.51-7-7Q0,71.64,0,50.26ZM49.8,96.17H91.22c4.45,0,4.52-.08,4.52-4.53,0-25.48-.06-51,.08-76.44,0-3.47-1.08-4.37-4.43-4.35-19.75.14-39.51.07-59.26.07-1.12,0-2.25,0-3.37-.06-1.38-.06-2.4-.55-2.33-2.2.06-1.48,1-1.86,2.27-1.92s2.24,0,3.36,0q29.8,0,59.6-.05c1.26,0,3.58.9,3.58-1.13S92.91,4.33,91.6,4.32c-27.83,0-55.67,0-83.51-.09-3.15,0-4.31.86-4.3,4.18Q4,50.16,3.8,91.92c0,3.23,1,4.33,4.25,4.3C22,96.09,35.88,96.17,49.8,96.17Z" transform="translate(-0.03 0)"/><path d="M50,68.85q-17.52,0-35,0c-4.65,0-5.22-.57-5.23-5.23,0-9.67-.63-9,8.88-9h35a23.37,23.37,0,0,1,3.35.22c1.07.15,1.43.94,1.39,2s-.44,1.77-1.51,1.89a27.63,27.63,0,0,1-3,.13q-18.18,0-36.36,0c-1.9,0-3.53-.06-3.58,2.69s1.34,3.07,3.56,3.06c14.59,0,29.18,0,43.76,0,2,0,4.05-.1,6.06,0,2.7.15,3.15-1,2.14-3.24a14.35,14.35,0,0,1-.71-1.89C68,57.09,67.23,55,64.33,57.6a2.13,2.13,0,0,1-2.81.15A2.44,2.44,0,0,1,60.91,55c1.27-5.23,2.53-10.46,3.86-15.68.55-2.15,2-2.71,3.78-1.41,4.39,3.13,8.73,6.32,13.06,9.51.82.6,1.64,1.31,1.42,2.49a2.12,2.12,0,0,1-2.25,1.67c-3.68.14-3,2.12-2.12,4.5s2.39,4.64,2.11,7.34c-.14,1.34.73,1.2,1.47,1.15,1.25-.08,3,.53,3.31-1.37.27-1.64,1-3.69-1.61-4.45-1.21-.35-1.41-1.36-1.26-2.43.17-1.28,1.18-1.47,2.23-1.61,3.59-.48,5,.67,5,4.33,0,10.52,1,9.85-9.38,9.84Zm16-17.32c3.06-1.66,4.08-.11,4.82,2.06s1.68,4.61,2.58,6.89c.31.79.57,1.85,1.84,1.39s.92-1.34.6-2.22c-.83-2.31-1.63-4.62-2.51-6.91-.8-2.09-1-4,1.78-4.74-1.31-1.83-3.17-2.53-4.55-3.79-2-1.83-2.75-.78-3.17,1.29C67,47.25,66.52,49,65.92,51.53Z" transform="translate(-0.03 0)"/><path d="M50,93.31c-11.89,0-23.79-.1-35.68.06-3.38,0-4.54-1.21-4.61-4.48-.21-9.46-.3-9.46,9.12-9.46h65.3c5.56,0,5.87.34,5.9,5.92,0,9.08.2,7.91-8,7.94C71.27,93.34,60.61,93.31,50,93.31Zm-.28-3.85q16.15,0,32.31,0c2,0,3.8.12,3.8-2.83s-1.58-3-3.7-3q-32.31,0-64.62,0c-2.19,0-3.64.29-3.61,3.06s1.54,2.77,3.51,2.76C28.13,89.44,38.9,89.46,49.67,89.46Z" transform="translate(-0.03 0)"/><path d="M49.86,30.11q17.69,0,35.36,0c4.38,0,4.71.36,4.76,4.84,0,1.12,0,2.24,0,3.37,0,5.29-1.4,6.42-6.79,5.62C82,43.76,81,43.42,81,42a1.85,1.85,0,0,1,2-2.14c2.57,0,2.82-1.6,2.72-3.61C85.65,34.69,85,34,83.44,34c-1.13,0-2.25,0-3.37,0q-31.15,0-62.29,0c-1.67,0-3.73-.63-3.9,2.31-.16,2.68.9,3.51,3.5,3.49q19.7-.12,39.4,0c1.74,0,4.69-1.13,4.77,2s-2.9,2.11-4.63,2.12c-14,.09-28.06.06-42.09,0-4.53,0-5.09-.56-5.13-5-.1-10.72,0-8.77,8.51-8.85C28.76,30,39.31,30.11,49.86,30.11Z" transform="translate(-0.03 0)"/><path d="M49.75,20.55c-5.16,0-10.32,0-15.48,0-1.38,0-2.91.05-2.88-1.92s1.55-1.89,2.92-1.9q15.48,0,31,0c1.3,0,2.93-.21,3,1.77.11,2.27-1.66,2-3.07,2C60.07,20.57,54.91,20.55,49.75,20.55Z" transform="translate(-0.03 0)"/><path d="M21.49,77H12.42C11,77,10,76.62,9.9,75s1.08-2.11,2.42-2.11q9.41,0,18.81,0c1.36,0,2.41.51,2.33,2.19S32.19,77,30.89,77C27.76,77,24.62,77,21.49,77Z" transform="translate(-0.03 0)"/><path d="M21.82,48.33c3.13,0,6.26,0,9.39,0,1.23,0,2.22.34,2.22,1.85s-.94,1.91-2.19,1.91c-6.37,0-12.74,0-19.11,0-1.29,0-2.22-.44-2.23-1.89s.9-1.91,2.19-1.91Z" transform="translate(-0.03 0)"/><path d="M17.59,27.21H11.92c-1.35,0-2.09-.64-2-2s.86-1.71,2-1.71q5.67,0,11.34,0c1.33,0,2.08.6,2,2s-.9,1.69-2,1.7C21.37,27.23,19.48,27.21,17.59,27.21Z" transform="translate(-0.03 0)"/></svg>