<svg id="Layer_1" data-name="Layer 1" xmlns="http://www.w3.org/2000/svg" viewBox="0 0 100.01 100"><path d="M53.86,0a72.16,72.16,0,0,1,7.87,1.31A49.78,49.78,0,0,1,77.47,8.16a1.67,1.67,0,0,1,.75,2.4c-.53.89-1.44,1.07-2.54.39a56.23,56.23,0,0,0-6.32-3.48A45.84,45.84,0,0,0,54.75,3.54a46.38,46.38,0,0,0-30,7.17,2.34,2.34,0,0,1-1.61.57A1.62,1.62,0,0,1,21.65,10a1.66,1.66,0,0,1,.79-1.85,46.35,46.35,0,0,1,6.65-3.69A49.05,49.05,0,0,1,45.78.12,2.49,2.49,0,0,0,46.25,0Z" transform="translate(0 0)"/><path d="M0,45.67a63.12,63.12,0,0,1,1.48-8.42A49.6,49.6,0,0,1,14.56,14.54a5.56,5.56,0,0,1,.5-.47,1.72,1.72,0,0,1,2.38,0,1.66,1.66,0,0,1,0,2.37c-1,1.07-2,2.06-2.93,3.14A46.05,46.05,0,0,0,3.61,44c-.25,1.8-.32,3.62-.4,5.44,0,.85-.08,1.66-1,2A1.83,1.83,0,0,1,0,50.75Z" transform="translate(0 0)"/><path d="M79.68,51c-.24,10.86-1.73,21.49-6,31.57a48.55,48.55,0,0,1-8.92,14,7.49,7.49,0,0,1-.69.69,1.64,1.64,0,0,1-2.36,0,1.68,1.68,0,0,1,0-2.31c.78-.92,1.62-1.78,2.38-2.72,5.2-6.47,8.2-14,10-22a84.92,84.92,0,0,0,2-14.65c.22-4.06.36-8.1-.62-12.11A26.36,26.36,0,0,0,37.34,26.85c-.2.11-.4.22-.61.31a1.64,1.64,0,0,1-2.21-.59,1.62,1.62,0,0,1,.59-2.29,23.06,23.06,0,0,1,4.57-2.17A29.72,29.72,0,0,1,79.13,44.42,31.66,31.66,0,0,1,79.68,51Z" transform="translate(0 0)"/><path d="M50.07,30.41c7.75.41,13.71,3.87,17.39,11a1.69,1.69,0,0,1-.57,2.45A1.75,1.75,0,0,1,64.51,43c-.1-.17-.19-.34-.28-.52a15.85,15.85,0,0,0-7.87-7.26A16.14,16.14,0,0,0,34,47.79c-.31,2.43-.15,4.87-.33,7.3-.5,6.9-1.51,13.69-4.4,20.06-1.95,4.3-4.66,8-9.09,10a10.93,10.93,0,0,1-3.9,1.16,1.64,1.64,0,0,1-.56-3.23c5.35-1.06,8.32-4.76,10.45-9.37a47,47,0,0,0,3.66-14.09c.42-3.35.53-6.72.62-10.1a19.58,19.58,0,0,1,17-18.94C48.26,30.51,49.11,30.48,50.07,30.41Z" transform="translate(0 0)"/><path d="M48.65,10.09c.48,0,1,0,1.46,0a1.63,1.63,0,0,1,.18,3.23c-1.51.32-3,.15-4.56.34A35.92,35.92,0,0,0,24.35,24a35.64,35.64,0,0,0-10.66,21.9c-.29,2.49-.21,5-.36,7.49-.22,3.8-.79,7.5-2.75,10.85a10.86,10.86,0,0,1-3.44,3.66,1.67,1.67,0,0,1-2.35-.36,1.58,1.58,0,0,1,.39-2.32c2.65-1.91,3.72-4.68,4.3-7.71a35.51,35.51,0,0,0,.59-7,39.16,39.16,0,0,1,9.78-26.66A39,39,0,0,1,44.38,10.46,29.07,29.07,0,0,1,48.65,10.09Z" transform="translate(0 0)"/><path d="M86.4,51.55A36.59,36.59,0,0,0,66.13,17.2a10.24,10.24,0,0,1-1-.54,1.62,1.62,0,0,1-.57-2.14,1.57,1.57,0,0,1,2-.82,15.45,15.45,0,0,1,2.8,1.37q17,9.9,20.19,29.36c.6,3.75.31,7.52.32,11.29a2.88,2.88,0,0,1-.13.76,1.7,1.7,0,0,1-1.8,1.32,1.61,1.61,0,0,1-1.46-1.67C86.38,54.61,86.4,53.08,86.4,51.55Z" transform="translate(0 0)"/><path d="M100,49.56a49,49,0,0,1-3.13,18c-.24.65-.5,1.3-1.25,1.51a1.63,1.63,0,0,1-1.71-.43,1.66,1.66,0,0,1-.35-1.81,49.17,49.17,0,0,0,1.67-5.29c3.38-14.42.86-27.65-7.89-39.65a9.15,9.15,0,0,1-.67-1,1.61,1.61,0,0,1,.45-2.09,1.54,1.54,0,0,1,2.13.11,9.59,9.59,0,0,1,1,1.21,49.17,49.17,0,0,1,9.4,23.24A38.4,38.4,0,0,1,100,49.56Z" transform="translate(0 0)"/><path d="M59.26,50.47a65.76,65.76,0,0,1-5.39,24.65c-.51,1.16-1.36,1.62-2.28,1.25a1.71,1.71,0,0,1-.84-2.51,62.56,62.56,0,0,0,4.52-15.79,58.78,58.78,0,0,0,.65-8A6,6,0,0,0,44,49.71c-.12,1.34-.73,2-1.84,1.87s-1.59-.9-1.46-2.21a9.29,9.29,0,0,1,16.86-4.81A8.84,8.84,0,0,1,59.26,50.47Z" transform="translate(0 0)"/><path d="M69.14,59.08A70.33,70.33,0,0,1,63.4,82,45,45,0,0,1,50.24,99c-.28.22-.56.44-.86.64A1.74,1.74,0,0,1,47,99.4,1.67,1.67,0,0,1,47.36,97c1-.79,2-1.53,2.86-2.36,6.51-5.94,10.5-13.39,13-21.76A69.77,69.77,0,0,0,65.74,58.8c.07-.92.34-1.76,1.37-2C68.32,56.47,69.18,57.39,69.14,59.08Z" transform="translate(0 0)"/><path d="M23.6,92c-1.21,0-1.89-.47-2-1.4a1.58,1.58,0,0,1,1.63-1.86c6.2-.61,9.51-4.73,12-9.83a52.38,52.38,0,0,0,4.15-14.57c.15-.91.39-1.75,1.46-1.93,1.36-.24,2.21.79,1.93,2.38-.34,1.91-.71,3.83-1.15,5.72a42.4,42.4,0,0,1-5,12.94c-2.53,4-5.82,7.15-10.65,8.24A9.05,9.05,0,0,1,23.6,92Z" transform="translate(0 0)"/><path d="M22.71,59.53a38.73,38.73,0,0,1-3.11,10.1,18.56,18.56,0,0,1-5.31,7,11.15,11.15,0,0,1-4.08,2,1.69,1.69,0,0,1-2-1.12,1.58,1.58,0,0,1,1-2c3.83-1.23,5.92-4.16,7.51-7.58a35,35,0,0,0,2.54-8.26c.07-.31.12-.64.22-.94a1.68,1.68,0,0,1,1.89-1.31C22.26,57.55,22.75,58.22,22.71,59.53Z" transform="translate(0 0)"/><path d="M88.08,69.59a54.17,54.17,0,0,1-1.37,5.87A42.17,42.17,0,0,1,80,89.66a8.22,8.22,0,0,1-.82,1,1.65,1.65,0,0,1-2.58-2c.27-.45.62-.84.93-1.26a42,42,0,0,0,6.53-15c.29-1.14.5-2.29.79-3.42a1.68,1.68,0,0,1,1.83-1.4C87.59,67.62,88.12,68.33,88.08,69.59Z" transform="translate(0 0)"/><path d="M20.25,49a29.81,29.81,0,0,1,6.53-17.59,4.11,4.11,0,0,1,.38-.45,1.63,1.63,0,0,1,2.28-.19,1.6,1.6,0,0,1,.29,2.27c-.7,1.05-1.52,2-2.18,3.11a25.9,25.9,0,0,0-3.9,13.4c0,1.34-.65,2-1.73,2s-1.66-.73-1.67-2.07C20.24,49.39,20.25,49.26,20.25,49Z" transform="translate(0 0)"/><path d="M48.32,81.56A1.7,1.7,0,0,1,49.77,84a24.74,24.74,0,0,1-3.38,5.11,29,29,0,0,1-11,8.19,1.72,1.72,0,0,1-1.92-.17A1.63,1.63,0,0,1,33,95.48c.14-.73.72-1,1.32-1.31a26.59,26.59,0,0,0,6.42-4,25.77,25.77,0,0,0,5.88-7.22A2.15,2.15,0,0,1,48.32,81.56Z" transform="translate(0 0)"/></svg>