<svg id="Layer_1" data-name="Layer 1" xmlns="http://www.w3.org/2000/svg" viewBox="0 0 87.26 100"><path d="M67.56,0A5.06,5.06,0,0,1,71,4.1a4.79,4.79,0,0,1-4.25,5.32c-.43,0-.85,0-1.27,0H23.15a9.36,9.36,0,0,0-3,.39A6,6,0,0,0,16,15.3c0,.42,0,.85,0,1.27V83.41a7.57,7.57,0,0,0,.44,3.26c1.26,2.78,3.55,3.82,6.45,3.82H61.26c1.72,0,3.44,0,5.17,0a4.75,4.75,0,0,1,0,9.49q-22.64,0-45.27,0C14.66,100,8.41,94.69,6.81,88a16.66,16.66,0,0,1-.41-3.86c0-22.8.06-45.6,0-68.4A15.9,15.9,0,0,1,19.18.15c.19,0,.37-.1.56-.15Z" transform="translate(-6.37)"/><path d="M77,54.71H40.53a4.66,4.66,0,0,1-4.64-4.05,4.81,4.81,0,0,1,3.45-5.32A6.45,6.45,0,0,1,41,45.21H77.05a1.67,1.67,0,0,0-.66-.87C72,39.94,67.6,35.56,63.22,31.15a4.76,4.76,0,0,1,1.47-7.9A4.6,4.6,0,0,1,70,24.34c1.61,1.56,3.18,3.17,4.77,4.76l17,17c2.44,2.44,2.45,5.19,0,7.62Q81,64.56,70.23,75.35a4.87,4.87,0,0,1-6.91.42,4.76,4.76,0,0,1-.06-7q6.46-6.51,13-13a10.81,10.81,0,0,1,.92-.72Z" transform="translate(-6.37)"/></svg>