<svg id="Layer_1" data-name="Layer 1" xmlns="http://www.w3.org/2000/svg" viewBox="0 0 83.77 100"><path d="M58.05,76.34q-8.13,6.33-16.1,0a3.05,3.05,0,0,0-.24,1.87q0,9.14,0,18.26c0,.5,0,1,0,1.5,0,1.06-.45,2-1.58,2s-1.75-.9-1.77-2c-.06-3,0-5.91-.05-8.87,0-2.14-.12-2.21-2.2-1.47-1.73.62-3.47,1.24-5.21,1.84-2.5.86-3.52,0-3-2.64.86-4.38,1.81-8.73,2.69-13.1.37-1.83.21-2-1.64-1.54-2.93.68-5.88,1.32-8.78,2.12a8.86,8.86,0,0,0-7,8c-.58,4.92-1.08,9.86-1.62,14.79,0,.28,0,.56-.08.83-.15,1.08-.56,2.09-1.81,2S8,98.82,8.14,97.64c.32-3,.67-6.1,1-9.15.2-1.82.43-3.65.58-5.48a12.85,12.85,0,0,1,10.4-12.15c5.54-1.29,11.06-2.64,16.61-3.91,1.2-.27,1.94-.72,1.85-2.07a5.83,5.83,0,0,1,.16-1c.38-2.77.33-5.16-2.3-7.23a19.89,19.89,0,0,1-6-8.73,3.34,3.34,0,0,0-3-2.37,7.64,7.64,0,0,1-6-10,4.48,4.48,0,0,1,1.86-2.7,2.55,2.55,0,0,0,1.2-2.52c.08-4-.35-7.93.24-11.87a11.75,11.75,0,0,1,4.44-7.63c1-.76.94-1.26.17-2.11A10.19,10.19,0,0,1,26.8,2.69C26.63.89,27.27.13,29,.12c8.1,0,16.2-.3,24.28.08s15,3.57,19.22,10.92a24.28,24.28,0,0,1,3,11.55c.09,2.67,0,5.36,0,8a1.93,1.93,0,0,0,.78,1.89c2.53,1.7,2.94,4.23,2.41,7-.59,3.06-2.43,5.31-5.5,5.85a4.73,4.73,0,0,0-4,3.28,24.52,24.52,0,0,1-7,9.29,3.07,3.07,0,0,0-1.19,2.75c.22,5.61.18,5.65,5.46,7q6.57,1.64,13.18,3.13A13,13,0,0,1,90.3,83c.4,4.61,1,9.2,1.46,13.8,0,.38.11.77.12,1.16,0,1.08-.41,1.94-1.55,2s-1.62-.69-1.73-1.68c-.32-2.6-.57-5.21-.86-7.81-.31-2.88-.55-5.77-1-8.64a8.52,8.52,0,0,0-6.11-7.28c-3.29-1-6.7-1.7-10.06-2.52-1.19-.29-1.49.21-1.25,1.35C70.26,77.72,71.13,82,72,86.35a8.6,8.6,0,0,1,.2,1.32c.1,1.83-.69,2.53-2.44,2-1.93-.58-3.8-1.29-5.69-2-2.3-.83-2.35-.81-2.36,1.55,0,2.57,0,5.14,0,7.7a8,8,0,0,1-.19,1.83A1.5,1.5,0,0,1,59.93,100a1.54,1.54,0,0,1-1.5-1.34,10.17,10.17,0,0,1-.12-1.83c0-6.37,0-12.73,0-19.09A2,2,0,0,0,58.05,76.34Zm-8.12-15.9A8.19,8.19,0,0,0,54,59.62c9.63-5,14.45-13.06,15-23.78a2.34,2.34,0,0,0-.83-2.08,14.71,14.71,0,0,1-5.64-11c0-1-.51-1.39-1.65-1.21a66.47,66.47,0,0,1-21.3.05c-1.61-.26-2.12.2-2.21,1.69a12.47,12.47,0,0,1-4.54,9.36c-1.9,1.53-2.08,3.39-1.73,5.51.12.72.27,1.43.4,2.14A26.12,26.12,0,0,0,45,59.09,9.25,9.25,0,0,0,49.93,60.44ZM43.53,3.59V3.53H32.14c-1.83,0-2,.28-1.09,1.91a8.44,8.44,0,0,0,2.53,2.85c2.14,1.55,2,2.65-.33,3.84A9.16,9.16,0,0,0,28,19c-.65,3.72-.17,7.46-.3,11.19,0,.57-.25,1.32.52,1.61s1.18-.37,1.7-.77c3.52-2.66,4.17-6.55,4.56-10.55.24-2.53.86-3,3.31-2.55A62.15,62.15,0,0,0,62.2,18c2.47-.49,3.11,0,3.34,2.52.37,4.14,1.15,8.08,4.78,10.79.45.33.83.79,1.46.57s.54-.91.54-1.44c0-3.18,0-6.35-.26-9.53-.92-10-7.83-16.79-17.82-17.26C50.67,3.45,47.1,3.59,43.53,3.59ZM58.29,67.48c-.12-1.43-.35-3-.33-4.53s-.48-1.5-1.61-.85a12.22,12.22,0,0,1-8.85,1.48,14.23,14.23,0,0,1-4.32-1.73c-.78-.46-1.07-.28-1.11.63-.07,1.72-.3,3.44-.34,5.16a8.29,8.29,0,1,0,16.56-.16Zm-20,9.3c0-1.62,0-3.24,0-4.85,0-.62.44-1.76-.73-1.66s-2.73-.19-3.09,1.36c-1,4.23-1.81,8.5-2.67,12.76-.21,1,.29,1.19,1.14.88,1.37-.49,2.73-1,4.11-1.43A1.65,1.65,0,0,0,38.29,82C38.25,80.24,38.28,78.51,38.29,76.78Zm23.43-.09v1.67c0,5.27,0,5.24,5.13,6.84,1.32.41,1.59.08,1.31-1.22-.82-3.7-1.67-7.4-2.26-11.14a2.7,2.7,0,0,0-2.67-2.56c-1.08-.16-1.56,0-1.52,1.22C61.77,73.23,61.72,75,61.72,76.69ZM75.66,38.35a3.17,3.17,0,0,0-.94-2.8,1.93,1.93,0,0,0-1.9-.34c-.71.21-.6.88-.58,1.41a31.31,31.31,0,0,1-.44,4.32c0,.42-.35.93.13,1.23s1,0,1.41-.23A4.61,4.61,0,0,0,75.66,38.35Zm-51.33-.06A4.7,4.7,0,0,0,26.86,42a1.15,1.15,0,0,0,1.26.11c.38-.27.15-.71.11-1.09a30.52,30.52,0,0,1-.47-4.48c0-.53.12-1.2-.61-1.38a1.93,1.93,0,0,0-2,.48A3.49,3.49,0,0,0,24.33,38.29Z" transform="translate(-8.12 0)"/><path d="M50,52.11A15.53,15.53,0,0,1,44.44,51c-.9-.42-1.74-1-1.33-2.15s1.33-1.31,2.45-.9a12.6,12.6,0,0,0,9,0c1-.4,1.91-.22,2.35.85s-.25,1.69-1.09,2.13A14.71,14.71,0,0,1,50,52.11Z" transform="translate(-8.12 0)"/><path d="M41.84,29.21a6.26,6.26,0,0,1,4.08,1.21,1.58,1.58,0,0,1,.6,2.19,1.48,1.48,0,0,1-2.15.62,5.06,5.06,0,0,0-5.1,0,1.5,1.5,0,0,1-2.15-.64c-.54-.92-.1-1.62.64-2.15A6.47,6.47,0,0,1,41.84,29.21Z" transform="translate(-8.12 0)"/><path d="M58.61,29.21a6.69,6.69,0,0,1,3.54,1.16c.75.49,1.28,1.16.81,2.1a1.51,1.51,0,0,1-2.24.75,5.09,5.09,0,0,0-5.09,0,1.47,1.47,0,0,1-2.14-.64,1.54,1.54,0,0,1,.63-2.17A7.48,7.48,0,0,1,58.61,29.21Z" transform="translate(-8.12 0)"/><path d="M41.8,39A2.21,2.21,0,0,1,39.65,37a2.27,2.27,0,0,1,2.2-2.29A2.14,2.14,0,0,1,44,36.85,2.19,2.19,0,0,1,41.8,39Z" transform="translate(-8.12 0)"/><path d="M56,36.62a2.18,2.18,0,0,1,2.3-1.92,2.22,2.22,0,0,1,2,2.44,2.17,2.17,0,0,1-4.3-.52Z" transform="translate(-8.12 0)"/></svg>