<svg id="Layer_1" data-name="Layer 1" xmlns="http://www.w3.org/2000/svg" viewBox="0 0 91.05 100"><path d="M49.93,100H9.9c-3.5,0-5.34-1.88-5.41-5.37C4.37,88.29,4.88,82,7,76A45.18,45.18,0,0,1,31.92,49.16c1.07-.47,1.06-.43.18-1.22a26.93,26.93,0,0,1-9.17-17.21,27.28,27.28,0,0,1,53.84-8.66C78.69,32.29,75.56,41,67.84,48c-.63.57-.73.73.14,1.13C82.8,55.9,91.73,67.34,94.8,83.32a52.38,52.38,0,0,1,.65,12.06c-.11,2.83-2.14,4.62-5,4.62Zm0-9.27q17.42,0,34.82,0c1,0,1.36-.26,1.32-1.31a33.79,33.79,0,0,0-.76-6.19A36,36,0,0,0,46,54.94a36.08,36.08,0,0,0-32,34.38c-.06,1.4,0,1.41,1.39,1.41Zm0-45.42A18,18,0,1,0,32,27.42,17.93,17.93,0,0,0,49.91,45.31Z" transform="translate(-4.48)"/></svg>