<svg id="Layer_1" data-name="Layer 1" xmlns="http://www.w3.org/2000/svg" viewBox="0 0 100 100"><defs><style>.cls-1{fill:#e6ebf7;}.cls-2{fill:#5c8cc9;}</style></defs><path class="cls-1" d="M10,79.36c-1.69-.8-2.23-2.56-3.07-4A50.18,50.18,0,0,1,.6,57.51a49,49,0,0,1,3-26.12A50.46,50.46,0,0,1,32.22,3.28a51.22,51.22,0,0,1,13.23-3A49.42,49.42,0,0,1,63.7,1.92,48,48,0,0,1,81,10.79a49.68,49.68,0,0,1,15.06,19.7,50.54,50.54,0,0,1,3.69,14.87,48.73,48.73,0,0,1-3.63,23.85,40.53,40.53,0,0,1-5.28,9.55c-.24.31-.43.62-.87.61a61.21,61.21,0,0,0-8.6-8.66c-11.63-9-24.72-12.59-39.3-10.37A49.36,49.36,0,0,0,17.76,71.41,73.44,73.44,0,0,0,10,79.36Zm40-64.86A19.36,19.36,0,1,0,69.37,34,19.4,19.4,0,0,0,50.07,14.5Z"/><path class="cls-2" d="M10,79.36a73.44,73.44,0,0,1,7.73-8A49.36,49.36,0,0,1,42.07,60.34c14.58-2.22,27.67,1.34,39.3,10.37A61.21,61.21,0,0,1,90,79.37c.19.56-.17.91-.47,1.29-7.15,9.08-16.29,15.28-27.56,17.85C43.56,102.72,27.58,98,14.11,84.78c-1.3-1.27-2.4-2.74-3.59-4.13C10.21,80.28,9.87,79.92,10,79.36Z"/><path class="cls-2" d="M50.07,14.5A19.36,19.36,0,1,1,30.65,33.84,19.4,19.4,0,0,1,50.07,14.5Z"/></svg>