<svg id="Layer_1" data-name="Layer 1" xmlns="http://www.w3.org/2000/svg" viewBox="0 0 99.81 100"><path d="M22.06,0a14.07,14.07,0,0,1,6.49,4.13c3.67,3.73,7.4,7.42,11.09,11.12a14.9,14.9,0,0,1,2.64,3.37,9.4,9.4,0,0,1-1.06,10.59,95.44,95.44,0,0,1-7.78,7.93,1.36,1.36,0,0,0-.31,1.91A56,56,0,0,0,42,51.57,75.89,75.89,0,0,0,56.77,64.42c1.45.94,3,1.67,4.5,2.54.54.31.82.05,1.16-.29,2.09-2.1,4.17-4.2,6.28-6.28A12.59,12.59,0,0,1,74,57a9.23,9.23,0,0,1,9.45,2.4c4.58,4.43,9.14,8.89,13.51,13.53s3.9,10.13-.63,14.8q-3.78,3.87-7.61,7.69A15.64,15.64,0,0,1,77.63,100c-6.41.16-12.4-1.64-18.21-4.12a101.52,101.52,0,0,1-22.9-13.62A112,112,0,0,1,13.68,57.84,87.7,87.7,0,0,1,2,34.68,35.91,35.91,0,0,1,.15,21.43,15,15,0,0,1,4,11.94a137,137,0,0,1,9.76-9.67A11.44,11.44,0,0,1,18.35,0ZM76.22,94.79c4.11,0,7.15-1.21,9.53-3.9,2-2.29,4.27-4.37,6.4-6.56.36-.37.72-.75,1-1.16C95,80.89,95.07,78.69,93,76.6c-4.27-4.42-8.65-8.73-13-13.06-2.16-2.14-4.49-2.19-6.72-.08-2.43,2.3-4.76,4.71-7.13,7.07-.35.35-.69.69-1.05,1a4.23,4.23,0,0,1-5.21.76c-2-1-4-2-5.88-3.26A83,83,0,0,1,35.18,51.81a50.4,50.4,0,0,1-7.51-11.93c-1-2.33-.73-3.79,1.06-5.55.67-.66,1.37-1.3,2-2,2-2,4-3.92,5.89-6a4.36,4.36,0,0,0,.2-6.25A10.76,10.76,0,0,0,36,19.2q-6-6-12-12c-2.66-2.64-5.17-2.65-7.82,0q-3.67,3.63-7.31,7.31a11.33,11.33,0,0,0-2.69,4C5,21.66,5.26,24.88,5.85,28.1a54.8,54.8,0,0,0,4.72,13.8,102.91,102.91,0,0,0,26.58,34A94.54,94.54,0,0,0,63.41,91.8,39.72,39.72,0,0,0,76.22,94.79Z" transform="translate(-0.09 0)"/></svg>