<svg id="Layer_1" data-name="Layer 1" xmlns="http://www.w3.org/2000/svg" viewBox="0 0 100 100"><path d="M.21,50q0-20.56,0-41.14C.23,2.38,2.57,0,9,0q28.91,0,57.8,0c6.64,0,8.94,2.36,9,9.07q0,10.71,0,21.42c0,.8,0,1.59,0,2.38-.08,1.27-.17,2.61-1.91,2.68-2,.08-2.12-1.4-2.13-2.78,0-6.91,0-13.83,0-20.74,0-8.34,0-8.34-8.42-8.34H9.87c-5.06,0-5.94.87-5.94,5.92q0,40.46,0,80.92c0,5.21.71,5.93,5.85,5.93q28.23,0,56.45,0c2.06,0,4,0,5.64-1.68a2.05,2.05,0,0,1,3.06-.2c.89.91.11,1.92-.43,2.76a6,6,0,0,1-5.41,2.93c-20.74,0-41.48,0-62.22,0-4.32,0-6.58-2.74-6.63-7.75C.15,84,.21,75.5.21,67,.2,61.34.21,55.67.21,50Z"/><path d="M100.48,65a26.76,26.76,0,1,1-26.7-26.86A26.67,26.67,0,0,1,100.48,65ZM73.82,87.8A22.74,22.74,0,0,0,96.68,64.92a23.21,23.21,0,0,0-22.93-23c-12.36,0-22.86,10.55-22.92,23.1A23,23,0,0,0,73.82,87.8Z"/><path d="M37.9,17c7.26,0,14.51,0,21.76,0,1.56,0,3.59-.16,3.66,2s-1.94,2.17-3.51,2.17q-21.93,0-43.86,0c-1.55,0-3.64.14-3.66-2,0-2.44,2.23-2.14,3.85-2.15C23.4,17,30.65,17,37.9,17Z"/><path d="M38,32.64c7,0,14,0,21,0a16.34,16.34,0,0,1,3.35.34,1.63,1.63,0,0,1,1.38,1.7,1.66,1.66,0,0,1-1.43,1.66,17.31,17.31,0,0,1-3.36.39q-20.86,0-41.74,0a2,2,0,0,1-.34,0c-1.68-.23-4.27.39-4.25-2.11s2.62-2,4.31-2C24,32.6,31,32.64,38,32.64Z"/><path d="M30.56,52.4c-4.74,0-9.49,0-14.23,0-1.59,0-3.6-.09-3.65-2.14,0-2.25,2.06-2,3.59-2q14.75-.06,29.49,0c1.07,0,2.9-.67,2.92,1.25s-1.41,2.8-3.2,2.84c-3.84.09-7.68.07-11.52.08h-3.4Z"/><path d="M31.54,83.24c-5.21,0-10.41,0-15.62,0-1.45,0-3.32,0-3.22-2,.08-1.77,1.83-1.72,3.18-1.73q15.1,0,30.21,0a3.41,3.41,0,0,1,2.81.92c.52.59,1.17,1.2.94,2.06-.29,1-1.28.78-2,.78C42.4,83.25,37,83.24,31.54,83.24Z"/><path d="M28.38,67.63c-4.19,0-8.38,0-12.58,0-1.36,0-3.06,0-3.12-1.82s1.62-1.93,3-1.93q12.92,0,25.84,0c1.39,0,3,0,2.87,2s-1.77,1.75-3.08,1.76C37,67.66,32.69,67.63,28.38,67.63Z"/><path d="M64.19,74.91c-.64-3.53.53-6.46,2-9.31,2.32-4.53,4.62-9.07,7-13.55,2-3.72,5.12-4.86,8.44-3.24s4.29,4.55,2.54,8.33c-2.66,5.75-5.4,11.46-8.45,17-1.85,3.36-5.43,5-8.6,7-1.48.9-2.71,0-2.9-1.65A38.36,38.36,0,0,1,64.19,74.91ZM78.1,61.15c0-1.81-1-2.09-1.93-2.53a1.52,1.52,0,0,0-2.26.73q-2.2,4.36-4.37,8.75a1.55,1.55,0,0,0,.74,2.27c.88.47,2,1.26,2.71.13C74.88,67.33,76.55,64,78.1,61.15Z"/></svg>