<svg id="Layer_1" data-name="Layer 1" xmlns="http://www.w3.org/2000/svg" viewBox="0 0 100.95 100"><path d="M100.48,31.66c-.07.07-.21.15-.2.21a2.71,2.71,0,0,1-.9,2.06,3.07,3.07,0,0,1-2.21,1c-1,0-2.1,0-3,0-.48,1.33-.89,2.6-1.41,3.83-.4,1-1,1.89-1.4,2.84a.59.59,0,0,0,.07.52c.65.7,1.32,1.38,2,2a3.32,3.32,0,0,1,.21,4c-1.08,1.19-2.14,2.43-3.32,3.52a3.48,3.48,0,0,1-5.07-.13C84.61,51,84,50.36,83.4,49.73c-.84.45-1.6.91-2.41,1.27s-1.93.77-2.9,1.13c-.32.12-.67.13-1,.25s-.8.35-.74,1,0,1.31,0,2a3.32,3.32,0,0,1-2.1,3.34,2.49,2.49,0,0,1-1.11.23c-1.45,0-2.9,0-4.34,0a3.41,3.41,0,0,1-3.32-2.62c-.12-.89-.13-1.8-.18-2.69,0-.32,0-.63,0-.77l-5.69-2.46c-.39-.16-.8-.55-1.14-.49s-.61.57-.92.87a7.35,7.35,0,0,1-2.11,1.69,3.25,3.25,0,0,1-3.8-.65c-1.09-1-2.12-2.06-3.16-3.11A4.22,4.22,0,0,1,47.7,47a2.75,2.75,0,0,1,.38-2.33,12,12,0,0,1,1.67-1.92l.16-.17c.76-.76.7-1,.09-1.9a16.31,16.31,0,0,1-1.26-2.59A7.41,7.41,0,0,1,48,35.89c-.09-1.08-.76-.92-1.44-.91s-1.22,0-1.84,0a3.44,3.44,0,0,1-3.12-2.44,5.36,5.36,0,0,1-.18-1.44q0-1.91,0-3.81a3.37,3.37,0,0,1,2.46-3.15,16.08,16.08,0,0,1,3-.21c.6,0,.88-.07,1-.8a24.28,24.28,0,0,1,1.41-3.72c.3-.71.74-1.36,1.06-2.07a.66.66,0,0,0-.14-.59A22.47,22.47,0,0,0,48.65,15a3.15,3.15,0,0,1-.92-1.86A3.46,3.46,0,0,1,49,9.75c.88-.83,1.69-1.72,2.56-2.56a3.46,3.46,0,0,1,2.71-1.05,3.06,3.06,0,0,1,2,.88c.6.59,1.2,1.18,1.78,1.78a.61.61,0,0,0,.87.15c.91-.49,1.82-1,2.78-1.4a28.68,28.68,0,0,1,2.92-1c.48-.14.81-.29.76-.91a21.1,21.1,0,0,1,0-2.25A3.51,3.51,0,0,1,67.79.22,10.1,10.1,0,0,1,69.34,0c1.2,0,2.42,0,3.62,0a3.8,3.8,0,0,1,3.39,2.51,1.11,1.11,0,0,1,0,.41c0,.67,0,1.35,0,2,0,1.32-.24,1.19,1.32,1.76,1.16.42,2.3.87,3.44,1.34a14.23,14.23,0,0,1,1.84.9.48.48,0,0,0,.7-.11c.49-.5,1-1,1.49-1.5a3.29,3.29,0,0,1,4.63-.47c1.06.87,2,1.84,3,2.79a3.84,3.84,0,0,1,1.33,3.4,3.27,3.27,0,0,1-.59,1.44c-.7.91-1.5,1.73-2.26,2.59.5,1.06,1.08,2.14,1.55,3.27s.83,2.32,1.27,3.57c.78,0,1.67.07,2.55,0a3.56,3.56,0,0,1,3.47,2.36,5.55,5.55,0,0,1,.13.73,3.55,3.55,0,0,0,.21.5Zm-2.38-2.1c0-.44,0-.88,0-1.31A4.12,4.12,0,0,0,98,27.08a1.5,1.5,0,0,0-1.58-1c-1.13-.05-2.26,0-3.39,0a1.06,1.06,0,0,1-1-.81c-.37-1.1-.66-2.24-1-3.34a13.42,13.42,0,0,0-1.82-3.7,1.69,1.69,0,0,1,.17-2.62l2-2a1.28,1.28,0,0,0,0-2.08l-2.71-2.7a1.33,1.33,0,0,0-1.86,0c-.78.79-1.57,1.58-2.37,2.36a1.4,1.4,0,0,1-1.53.36c-1-.53-2-1.11-3-1.58a29,29,0,0,0-2.86-1.08c-.65-.22-1.32-.35-2-.59A1.26,1.26,0,0,1,74.18,7c0-1.07,0-2.14,0-3.21a1.48,1.48,0,0,0-1.56-1.63c-1.18,0-2.38-.06-3.56,0-.52,0-1.16.16-1.36.78a5,5,0,0,0-.19,1.44q0,1.39,0,2.79a1.14,1.14,0,0,1-.81,1.09c-.74.29-1.55.38-2.31.64a27.68,27.68,0,0,0-2.9,1.14c-.92.44-1.78,1-2.68,1.49a.9.9,0,0,1-1.17-.15c-.78-.82-1.55-1.66-2.41-2.4s-1.45-1-2.36,0-1.66,1.66-2.5,2.49a1.39,1.39,0,0,0,0,2.14c.77.78,1.51,1.59,2.33,2.32a1.2,1.2,0,0,1,.32,1.29,5,5,0,0,1-.55,1.05,35.27,35.27,0,0,0-1.59,3.2c-.43,1.13-.67,2.34-1,3.51-.25.83-.64,1.08-1.54,1.08H45.21a1.49,1.49,0,0,0-1.59,1.53c-.07,1.22,0,2.46,0,3.68a1.32,1.32,0,0,0,.72,1.3,4.91,4.91,0,0,0,1.48.22c1,0,2,0,3,0a.8.8,0,0,1,.84.65c.26.89.56,1.76.79,2.66a14,14,0,0,0,1.95,4.26c.21.34.43.67.61,1a1.52,1.52,0,0,1-.46,1.68l-2.37,2.37a1.39,1.39,0,0,0,0,1.78l2.91,2.88a1.47,1.47,0,0,0,1.71,0l2.41-2.42a1.65,1.65,0,0,1,1.82-.33,13.86,13.86,0,0,0,1.24.81,25.78,25.78,0,0,0,6.48,2.4.84.84,0,0,1,.74.89q0,1.7,0,3.39c0,1.24.5,1.81,1.59,1.83s2.34.06,3.51,0c1-.06,1.61-.5,1.59-1.64s0-2.18,0-3.27a1.26,1.26,0,0,1,1-1.19c.64-.17,1.27-.36,1.9-.56s1.32-.38,1.95-.64a20.51,20.51,0,0,0,2-.95c.65-.35,1.24-.82,1.92-1.11a1.26,1.26,0,0,1,1.5.31c.78.85,1.62,1.64,2.44,2.46a1.88,1.88,0,0,0,1.54.22,8.79,8.79,0,0,0,1.1-.92,9.51,9.51,0,0,0,2.35-2.74.83.83,0,0,0,0-.6,8,8,0,0,0-2.69-3,1.24,1.24,0,0,1-.38-1.62c.31-.59.71-1.13,1-1.72.49-1,1-2,1.37-3.05A24.47,24.47,0,0,0,92,33.92c.21-.85.46-1.11,1.34-1.11h3.09a1.51,1.51,0,0,0,1.69-1.7Z" transform="translate(0.48 0)"/><path d="M64.18,80.22c-.77,1-1.46,2-2.29,2.88S60,84.89,59.1,85.75c-.47.43-1,.83-1.45,1.25a2.54,2.54,0,0,1-.29.28c-.83.57-.79.55-.36,1.49a26,26,0,0,1,1.34,3.39,4.49,4.49,0,0,1-2.53,5.36c-1.58.71-3.18,1.39-4.8,2a4.84,4.84,0,0,1-2.78.39,6,6,0,0,1-1.76-.77,5.69,5.69,0,0,1-2.11-3.21c-.23-.66-.57-1.28-.86-1.92-.07-.18-.12-.36-.23-.67l-1.57.27-.18,0c-1.64.06-3.29.19-4.94.17-.95,0-1.9-.27-2.85-.37a10.5,10.5,0,0,0-1.25,0c-.46,1.07-.88,2.11-1.34,3.12a6.9,6.9,0,0,1-1.05,1.93,6,6,0,0,1-2,1.24,4.53,4.53,0,0,1-3.73-.37L20.74,97.8a6.51,6.51,0,0,1-2.36-1.43,4.36,4.36,0,0,1-1-4,18.27,18.27,0,0,1,1.25-3.15,8.16,8.16,0,0,0,.47-1.15c.12-.52-.41-.71-.7-1s-.76-.48-1.11-.77A25.68,25.68,0,0,1,15,84.25c-1-1-1.78-2.16-2.68-3.23a8.93,8.93,0,0,0-.78-.74c-1,.43-2,.91-3.11,1.3a5.82,5.82,0,0,1-2.55.63,5.42,5.42,0,0,1-2.18-.77c-1.38-.77-1.78-2.19-2.33-3.52-.41-1-.8-2-1.24-3a4.69,4.69,0,0,1,.09-4.67,4.37,4.37,0,0,1,2.5-1.94,20.56,20.56,0,0,0,1.95-.81,9.38,9.38,0,0,1,1-.44c.45-.14.42-.44.36-.78s-.09-.57-.14-.85a32.45,32.45,0,0,1-.21-6.23,12.86,12.86,0,0,1,.37-2.44.67.67,0,0,0-.5-.84,37.73,37.73,0,0,1-3.87-1.64A3.89,3.89,0,0,1-.45,50.75a6.4,6.4,0,0,1,.71-3c.7-1.42,1.19-3,1.85-4.4a4.24,4.24,0,0,1,2.94-2.3,4.73,4.73,0,0,1,3.27.47l3.21,1.33,2.2-2.6a10.87,10.87,0,0,1,1.18-1.34,26.72,26.72,0,0,1,3.59-3,.92.92,0,0,0,.39-1.34c-.42-.84-.79-1.72-1.14-2.6a4.77,4.77,0,0,1,.31-4.74,6,6,0,0,1,2.65-1.88c.69-.35,1.43-.62,2.15-.9,1-.37,1.94-.67,2.87-1.09a3.65,3.65,0,0,1,3.3.43A4.2,4.2,0,0,1,30.93,26c.48,1.16.94,2.32,1.4,3.48a9.27,9.27,0,0,1,.56,1.66c.1.49-.37.94-.93,1.06a1.6,1.6,0,0,1-1.18-.71c-.21-.59-.39-1.19-.64-1.76-.43-1-.87-2.05-1.38-3-.66-1.27-1.37-1.52-2.83-1s-3.19,1.21-4.77,1.84A2.38,2.38,0,0,0,19.52,30a10.13,10.13,0,0,0,.79,2.1c.44,1.06.9,2.12,1.34,3.19a1.45,1.45,0,0,1-.59,1.5A11.36,11.36,0,0,0,19.31,38c-.91.75-1.82,1.49-2.66,2.31a29.54,29.54,0,0,0-1.93,2.24c-.51.62-1,1.27-1.49,1.9a5.76,5.76,0,0,1-.56.72c-.51.46-1,.11-1.48-.09-1.39-.57-2.76-1.18-4.14-1.76a2.38,2.38,0,0,0-3.16,1.48c-.56,1.33-1.06,2.69-1.58,4a4.73,4.73,0,0,0-.53,1.42,2.44,2.44,0,0,0,.44,1.43,5.14,5.14,0,0,0,2.49,1.42c1,.41,2,.77,3,1.2a1,1,0,0,1,.75,1.07c-.12,1-.25,2-.37,3a3,3,0,0,0,0,.42c0,1.7,0,3.41,0,5.11,0,.76.25,1.52.33,2.28a7.61,7.61,0,0,1,0,1.72c0,.2-.32.44-.54.54-1.38.62-2.79,1.18-4.16,1.81a4.54,4.54,0,0,0-1.38.89c-.83.83-.54,1.82-.17,2.76.57,1.43,1.21,2.82,1.74,4.27a2.43,2.43,0,0,0,3.31,1.36q2.33-1,4.7-1.94a1.05,1.05,0,0,1,1.22.59,23.66,23.66,0,0,0,3.75,4.54,20.71,20.71,0,0,0,3.6,3c.31.19.56.46.87.66a1,1,0,0,1,.31,1.27c-.23.75-.62,1.45-.9,2.19-.37,1-.62,2-1.08,2.92a1.58,1.58,0,0,0,.19,1.6,2.14,2.14,0,0,0,1.3,1c1.11.38,2.15,1,3.25,1.38a7.42,7.42,0,0,0,2.43.76,1.92,1.92,0,0,0,1.89-1.1,23.17,23.17,0,0,0,1.05-2.26,20.07,20.07,0,0,0,.9-2.21A1.37,1.37,0,0,1,31.59,91a1.59,1.59,0,0,1,.57-.06c.88.12,1.75.31,2.63.36,1.82.11,3.65.19,5.47.2a12.84,12.84,0,0,0,2.08-.38,7.53,7.53,0,0,1,1.56-.17c.92,0,1.15.86,1.46,1.52s.44,1.21.69,1.8c.35.8.73,1.58,1.12,2.35a1.85,1.85,0,0,0,1.55,1,5.36,5.36,0,0,0,2.54-.69c1.14-.38,2.25-.88,3.36-1.37,1.84-.8,2-2.07,1.17-3.85-.39-.92-.75-1.85-1.13-2.78-.16-.4-.33-.8-.5-1.2a.73.73,0,0,1,.2-1c.8-.59,1.58-1.19,2.37-1.79a1.5,1.5,0,0,0,.11-.13c.9-.82,1.85-1.6,2.68-2.49S61,80.4,61.83,79.47a13.33,13.33,0,0,1,1.69-1.67c.17-.14.61-.06.87,0,1,.39,1.93.88,2.92,1.26a14.9,14.9,0,0,0,2.27.7,1.92,1.92,0,0,0,2.22-1.34c.41-.85.69-1.76,1-2.64.27-.65.54-1.3.86-1.92a2.55,2.55,0,0,0-.22-2.81,2.31,2.31,0,0,0-.79-.54C71.47,70,70.23,69.49,69,69c-.31-.13-.64-.23-.94-.38a1.19,1.19,0,0,1-.75-1.31A1.43,1.43,0,0,1,69,66.6c1.58.63,3.19,1.21,4.71,2A4.43,4.43,0,0,1,76.24,72a5.91,5.91,0,0,1-.53,3c-.53,1.5-1.28,2.92-1.87,4.4a4.51,4.51,0,0,1-3.44,2.74,4.42,4.42,0,0,1-2.24-.22c-1.24-.41-2.42-1-3.62-1.51C64.43,80.37,64.34,80.3,64.18,80.22Z" transform="translate(0.48 0)"/><path d="M22.07,61.55c0-.4,0-.79,0-1.19a11.24,11.24,0,0,1,.87-4.21,13.58,13.58,0,0,1,2.92-4.95c.45-.46.82-1,1.3-1.45a15,15,0,0,1,5.19-3.12,15.47,15.47,0,0,1,2.3-.76,17.6,17.6,0,0,1,3.4-.2c.58,0,.85.45.8,1.24a1.3,1.3,0,0,1-1,.92,21.12,21.12,0,0,0-3.29.4,12.44,12.44,0,0,0-4.93,2.39,21,21,0,0,0-1.72,1.54,12.42,12.42,0,0,0-2.16,3.15,11.28,11.28,0,0,0-1.28,4.24,27.26,27.26,0,0,0-.19,2.83,12.6,12.6,0,0,0,.55,2.85,23.59,23.59,0,0,0,1.2,3,8.37,8.37,0,0,0,1,1.53,14.53,14.53,0,0,0,2.94,2.81,16.55,16.55,0,0,0,4.73,2.24,11.53,11.53,0,0,0,1.87.26,9.29,9.29,0,0,0,1.15.15c.38,0,.77-.15,1.15-.14a11.71,11.71,0,0,0,5.81-1.62,11.16,11.16,0,0,0,4-3.51,20.34,20.34,0,0,0,1.75-2.79,14.45,14.45,0,0,0,.93-3,19.12,19.12,0,0,0,.19-2.27,2.12,2.12,0,0,1,.85-1.56c.52-.36,1.55.37,1.51,1.11-.06,1.12-.22,2.24-.36,3.35a11.57,11.57,0,0,1-1.18,3.56,12.09,12.09,0,0,1-1.92,3,22.18,22.18,0,0,1-2.28,2.45A23.71,23.71,0,0,1,44.34,76a23.78,23.78,0,0,1-3,1,11.63,11.63,0,0,1-4.39.4A16.23,16.23,0,0,1,34,77a12.71,12.71,0,0,1-3.79-1.52c-.86-.55-1.67-1.17-2.5-1.77a6.9,6.9,0,0,1-1.07-.87,16.81,16.81,0,0,1-3.36-5,12.14,12.14,0,0,1-1-3.44c-.09-.93-.19-1.85-.29-2.78Z" transform="translate(0.48 0)"/><path d="M59.57,29.19c-.08-6,5.14-10.48,9.81-11A11.39,11.39,0,0,1,82.29,29a11.18,11.18,0,0,1-3.84,9,10.82,10.82,0,0,1-7.65,2.92,11,11,0,0,1-7.93-3.38A11.08,11.08,0,0,1,59.57,29.19Zm11.3,9.38a9.69,9.69,0,0,0,6-2.27,8.79,8.79,0,0,0,3.16-6.84,8.56,8.56,0,0,0-2-5.72,9.15,9.15,0,0,0-14.24,0,8.71,8.71,0,0,0-2,5.71,9,9,0,0,0,2.69,6.43A9.64,9.64,0,0,0,70.87,38.57Z" transform="translate(0.48 0)"/></svg>