<svg id="Layer_1" data-name="Layer 1" xmlns="http://www.w3.org/2000/svg" viewBox="0 0 83.37 100"><path d="M50,100H17.92c-2.64,0-4-2.24-2.89-4.66.29-.64.84-.57,1.33-.53.75.08,1.82-.47,2.14.66.27.91.86.9,1.55.9q29.92,0,59.84,0c1.06,0,1.49-.32,1.48-1.42-.05-5,0-10-.05-15a7.87,7.87,0,0,0-8.08-8.12c-4.36-.08-8.73,0-13.09,0a2.84,2.84,0,0,0-2.18,1q-3,3.12-6.17,6.17c-1.44,1.42-2.24,1.42-3.68,0-2.41-2.37-4.77-4.78-7.18-7.15a3.35,3.35,0,0,1-1.08-2.63c0-2.91,0-5.82,0-8.73a2.08,2.08,0,0,0-.91-2c-6.45-4.36-9.18-10.61-9.23-18.22,0-1.5,0-3,0-4.52,0-1,.12-1.8-1.12-2.4-.93-.44-.5-1.79-.38-2.74s1-.81,1.62-.81c4.88,0,9.77,0,14.65,0,4,0,6-1.53,7.09-5.41l3-10.63a2.56,2.56,0,0,1,1.37-2c1.11-.44,2.08.18,2.55,1.79,1,3.24,1.83,6.49,2.75,9.74.31,1.1.59,2.21,1,3.28a4.42,4.42,0,0,0,4.48,3.19c1.25,0,2.49,0,3.74,0,.69,0,1.29.24,1.25,1.05s.56,2.21-.64,2.61c-1,.35-1,.93-1.07,1.73-.11,3.27.26,6.54-.29,9.8a19.45,19.45,0,0,1-8.24,13.07A2.93,2.93,0,0,0,60,60.88c.1,1.86.08,3.74,0,5.6,0,1.23.42,1.63,1.63,1.64,4.2,0,8.41-.18,12.61.15A11.54,11.54,0,0,1,85,79.46c.08,6,0,12.06,0,18.08,0,1.94-.55,2.45-2.55,2.46ZM56.6,20.3c-.55,1.87-1,3.39-1.45,4.92C53.49,31,50,33.58,44,33.59H35c-.7,0-1.43,0-1.41,1,.07,3.68-.42,7.4.44,11a16.45,16.45,0,0,0,31.72.79c1.18-4,.57-8,.65-12.07,0-.75-.62-.87-1.19-1a7.94,7.94,0,0,1-6.39-5.7C58,25.32,57.39,23,56.6,20.3Zm-.19,45.46c0-1.55,0-2.59,0-3.62s-.39-1.32-1.39-1a18,18,0,0,1-10.28,0c-1-.3-1.28,0-1.25,1,.05,2,0,4.05,0,6.08a2.16,2.16,0,0,0,.64,1.68c1.67,1.64,3.33,3.29,5,5,.6.62,1.08.65,1.68,0a28.54,28.54,0,0,1,2.76-2.74C55.77,70.32,57.18,68.25,56.41,65.76Z" transform="translate(-8.32 0)"/><path d="M25.14,39c0,3.43,0,6.86,0,10.28,0,1.93-.59,2.53-2.46,2.66-2.91.19-4.11,1.11-4.08,3.14s1.4,3,4.36,3c1.87,0,3.74.06,5.61,0,1.57-.06,1.56.88,1.59,2s-.31,1.83-1.65,1.8c-2.75,0-5.51,0-8.26,0C15.39,62,12,65.31,12,70s3.38,8,8.25,8.08q4.13.09,8.25,0c1.33,0,1.69.56,1.67,1.79s-.1,2-1.62,2c-3.43-.08-6.86.12-10.27-.23-5.52-.55-10.12-6-9.95-11.75A11.35,11.35,0,0,1,15,59.38c.84-.42,1-.71.6-1.6-1.73-4.24.32-8.26,4.79-9.38,1.14-.29,1.17-1,1.17-1.83V29.12c0-13.35,7.86-24,20.59-28C52-2,64.22,1.61,71,9.51a29.55,29.55,0,0,1,7.4,20.13c0,5.61,0,11.22,0,16.83,0,1.15.28,1.71,1.54,2a6.58,6.58,0,0,1,4.51,9.06c-.51,1.25-.09,1.52.86,2a11.71,11.71,0,0,1,4.36,17c-.37.54-.62,1.6-1.74.87-1.67-1.08-2-1.76-1.33-2.85a8.13,8.13,0,0,0-7.1-12.64c-2.69.12-5.4,0-8.1,0-1.36,0-1.65-.62-1.63-1.82s.06-2.05,1.6-2c2.18.06,4.37,0,6.55,0s3.38-1.21,3.39-3-1.24-3-3.33-3.1c-2.85-.12-3.19-.48-3.19-3.33,0-6.23,0-12.46,0-18.7,0-5.74-1.27-11.18-4.82-15.8C63.51,5.67,55,2,44.5,4.35c-9.76,2.19-15.89,8.53-18.56,18.19a27.67,27.67,0,0,0-.78,6.78C25.08,32.54,25.14,35.76,25.14,39Z" transform="translate(-8.32 0)"/><path d="M27.62,91.81a49.24,49.24,0,0,1-5.29-.2,8.45,8.45,0,0,1-7.28-6.87c-.12-.72-.28-1.62.81-1.62s2.23-.68,2.76.87c1.1,3.18,2.26,4,5.6,4,2.59,0,5.19,0,7.78,0a8.05,8.05,0,0,0,.18-16.08c-1.5-.08-3-.05-4.51-.07-1.11,0-1.22-.78-1.15-1.61s-.39-2,1-2.06C31.13,68,34.77,67.91,38,70a12,12,0,0,1,5.07,12.88,11.8,11.8,0,0,1-10,8.74C31.24,91.82,29.43,91.77,27.62,91.81Z" transform="translate(-8.32 0)"/><path d="M49.94,54.75a6.44,6.44,0,0,1-6.11-4.67c-.17-.66-.57-1.54.44-1.84s1.86-.33,2.25.94a3.56,3.56,0,0,0,6.81.23c.23-.64.44-1.24,1.32-1.29,1.39-.09,1.82.35,1.53,1.72A6.48,6.48,0,0,1,49.94,54.75Z" transform="translate(-8.32 0)"/><path d="M61.29,40a3.1,3.1,0,0,1-3,3.15,3.2,3.2,0,0,1-3.09-3.08,3,3,0,0,1,3-3A2.85,2.85,0,0,1,61.29,40Z" transform="translate(-8.32 0)"/><path d="M38.65,40.06a2.84,2.84,0,0,1,3-3,3,3,0,0,1,3,2.89,3.23,3.23,0,0,1-3,3.16A3.08,3.08,0,0,1,38.65,40.06Z" transform="translate(-8.32 0)"/></svg>